<?xml version="1.0" encoding="utf-8"?>
<!-- Generator: Adobe Illustrator 27.5.0, SVG Export Plug-In . SVG Version: 6.00 Build 0)  -->
<svg version="1.1" xmlns="http://www.w3.org/2000/svg" xmlns:xlink="http://www.w3.org/1999/xlink" x="0px" y="0px"
	 viewBox="0 0 3710 3710" style="enable-background:new 0 0 3710 3710;" xml:space="preserve">
<g id="Background">
	<g>
		<g>
			<rect style="fill:#FFFFFF;" width="3710" height="3710"/>
		</g>
	</g>
</g>
<g id="Illustration">
	<g>
		<linearGradient id="SVGID_1_" gradientUnits="userSpaceOnUse" x1="3505.6799" y1="3689.0759" x2="1537.6284" y2="1594.0538">
			<stop  offset="0" style="stop-color:#DAE3FE"/>
			<stop  offset="1" style="stop-color:#E9EFFD"/>
		</linearGradient>
		<path style="fill:url(#SVGID_1_);" d="M2914.774,2848.562c-72.652,74.888-137.659,118.909-187.431,152.142
			c-485.412,324.114-1040.29,230.696-1211.845,198.766c-276.782-51.515-510.425-87.857-711.166-269.218
			c-456.144-412.108-433.958-1271.795-85.408-1804.334c41.327-63.144,389.349-579.02,945.429-651.711
			c13.601-1.778,23.749-2.79,32.637-3.731c86.024-9.108,619.099-57.178,1053.769,306.988
			c62.221,52.128,162.352,146.155,255.206,289.561C3345.483,1591.382,3346.559,2403.495,2914.774,2848.562z"/>
		<g>
			<g>
				<path style="fill:#91B3FA;" d="M667.999,785.165l-135.516,327.022c-35.903,86.638-30.139,184.951,15.643,266.8l274.789,491.281
					c31.158,55.705,44.137,119.752,37.124,183.192l-30.571,276.538c-11.459,103.656,30.605,206.02,111.636,271.669l0,0
					c128.602,104.19,316.71,87.382,424.802-37.958l171.386-198.734c80.347-93.167,97.158-225.365,42.687-335.676l-179.647-363.812
					c-22.953-46.482-33.733-98.028-31.332-149.812l24.746-533.76c5.705-123.051-62.854-237.547-174.017-290.619l-136.77-65.296
					C924.582,550.389,735.185,623.036,667.999,785.165z"/>
				<g>
					<path style="fill:#BDD0FB;" d="M1181.164,2737.331c-0.848,0.093-1.713,0.117-2.592,0.068c-8.627-0.485-15.229-7.87-14.744-16.5
						c44.956-801.359-218.091-1638.393-240.061-1680.208c-4.226-5.086-4.901-12.511-1.163-18.39
						c4.631-7.289,14.301-9.45,21.598-4.811c4.652,2.957,7.724,4.909,22.938,50.016c7.013,20.791,18.663,57.128,34.338,112.182
						c23.551,82.705,58.992,217.615,94.096,390.656c58.661,289.145,123.538,723.771,99.498,1152.311
						C1194.635,2730.403,1188.633,2736.517,1181.164,2737.331z M927.379,1043.877c0.011,0.007,0.024,0.015,0.036,0.023
						C927.403,1043.892,927.39,1043.884,927.379,1043.877z M927.349,1043.858l0.006,0.004L927.349,1043.858z"/>
				</g>
			</g>
			<g>
				<path style="fill:#BDD0FB;" d="M1179.079,2384.992c-56.737-27.17-94.476-82.445-99.337-145.165
					c-5.19-66.958-27.03-139.295-66.23-208.371c-102.873-181.278-286.334-271.446-409.772-201.396
					c-123.438,70.049-140.11,273.79-37.236,455.069c19.969,35.189,42.976,66.944,67.992,94.758
					c37.933,42.178,53.326,99.98,40.358,155.206c-12.317,52.456-5.662,109.511,23.029,160.07
					c39.175,69.034,109.815,109.006,183.675,112.132c43.751,1.852,85.13,19.771,116.063,50.766
					c87.771,87.948,204.757,119.822,292.54,70.007c112.505-63.845,134.429-237.684,48.969-388.278
					C1298.388,2467.995,1240.595,2414.453,1179.079,2384.992z"/>
				
					<linearGradient id="SVGID_00000036941740077651571480000005542985325781165704_" gradientUnits="userSpaceOnUse" x1="1144.0762" y1="2711.4724" x2="1705.4415" y2="1975.3109">
					<stop  offset="0" style="stop-color:#DAE3FE"/>
					<stop  offset="1" style="stop-color:#E9EFFD"/>
				</linearGradient>
				<path style="fill:url(#SVGID_00000036941740077651571480000005542985325781165704_);" d="M1439.338,3129.04
					c-2.96,1.335-6.553,0.921-9.161-1.352c-128.876-112.296-276.532-336.152-377.706-504.17
					c-109.435-181.735-189.604-339.122-190.4-340.69c-2.145-4.221-0.463-9.38,3.758-11.524c4.205-2.14,9.381-0.463,11.525,3.758
					c3.175,6.249,320.325,627.301,564.085,839.703c3.57,3.11,3.941,8.524,0.832,12.093
					C1441.433,3127.817,1440.429,3128.548,1439.338,3129.04z"/>
			</g>
		</g>
		<g>
			<g>
				
					<linearGradient id="SVGID_00000143607064657376604340000001504824025552852917_" gradientUnits="userSpaceOnUse" x1="1829.3885" y1="-270.6409" x2="1842.8359" y2="3178.2419">
					<stop  offset="0" style="stop-color:#09005D"/>
					<stop  offset="1" style="stop-color:#1A0F91"/>
				</linearGradient>
				<path style="fill:url(#SVGID_00000143607064657376604340000001504824025552852917_);" d="M2740.229,604.99
					c-0.42,445.214-3.822,1980.874-30.465,2524.502c-2.823,57.591-43.336,102.97-92.636,103.766
					c-243.835,3.932-1137.487,7.8-1535.548-20.581c-82.91-5.912-147.174-86.023-146.745-183.224
					c2.059-467.272,12.876-1781.418,69.623-2382.282c6.802-71.992,56.451-128.345,118.161-134.184
					c266.009-25.176,1164.66-81.22,1508.357-47.461C2692.961,471.615,2740.298,532.189,2740.229,604.99z"/>
				
					<linearGradient id="SVGID_00000013876441129552574270000005650275114040407705_" gradientUnits="userSpaceOnUse" x1="-1814.4125" y1="-3042.7065" x2="-5504.1533" y2="1677.3821" gradientTransform="matrix(-0.9998 -0.0221 -0.0221 0.9998 -3617.1572 -79.3674)">
					<stop  offset="0" style="stop-color:#FF928E"/>
					<stop  offset="1" style="stop-color:#FE7062"/>
				</linearGradient>
				<path style="fill:url(#SVGID_00000013876441129552574270000005650275114040407705_);" d="M2628.499,739.113
					c5.162,359.475,20.07,1555.311-2.84,1996.876c-3.348,64.542-48.015,115.799-103.244,118.354
					c-227.394,10.517-1002.792,27.64-1335.126-10.93c-59.842-6.946-105.644-64.721-107.325-135.07
					c-8.763-366.814-32.585-1480.528-10.329-1917.154c3.552-69.655,50.962-125.552,110.473-130.476
					c246.204-20.361,1070.705-63.525,1353.3-39.197C2586.458,626.085,2627.607,676.879,2628.499,739.113z"/>
				<g style="opacity:0.17;">
					<path style="fill:#FFFFFF;" d="M2527.505,797.118c4.572,318.33,17.774,1377.294-2.515,1768.32
						c-2.965,57.155-42.52,102.545-91.428,104.807c-201.367,9.314-888.015,24.477-1182.311-9.679
						c-52.993-6.15-93.553-57.313-95.04-119.61c-7.761-324.83-28.856-1311.07-9.147-1697.722
						c3.145-61.682,45.128-111.182,97.828-115.542c218.025-18.03,948.156-56.253,1198.406-34.711
						C2490.276,697.026,2526.716,742.007,2527.505,797.118z"/>
				</g>
				<path style="opacity:0.42;fill:#91B3FA;" d="M2139.437,532.44L2139.437,532.44c-0.302,13.655-9.648,24.716-21.32,25.17
					c-57.622,2.25-219.945,8.638-292.498,11.949c-14.304,0.655-25.183-14.614-22.112-30.99l0.525-2.794
					c2.098-11.172,10.235-19.437,19.979-20.265c49.087-4.165,197.172-15.45,294.983-9.193
					C2130.743,507.069,2139.742,518.674,2139.437,532.44z"/>
			</g>
		</g>
		<g>
			<g>
				<path style="fill:#91B3FA;" d="M1665.979,1745.093c33.959-65.966,97.124-112.473,170.492-120.78l5.097-322.576
					c-210.82,0.224-397.074,131.845-481.957,326.958L1665.979,1745.093z"/>
				<path style="fill:#7D97F4;" d="M2072.398,1888.578c-17.254,105.913-104.029,189.141-210.392,192.752
					c-31.726,1.077-62.044-5.031-89.558-16.97l-166.22,285.945c77.278,38.752,164.542,57.72,255.778,51.873
					c265.078-16.988,473.229-238.753,496.333-505.66L2072.398,1888.578z"/>
				
					<linearGradient id="SVGID_00000096759931267721065040000008820894369026943130_" gradientUnits="userSpaceOnUse" x1="2148.5708" y1="1032.521" x2="278.8592" y2="3618.2947">
					<stop  offset="0" style="stop-color:#4F52FF"/>
					<stop  offset="1" style="stop-color:#4042E2"/>
				</linearGradient>
				<path style="fill:url(#SVGID_00000096759931267721065040000008820894369026943130_);" d="M1554.17,2320.213l167.79-286.815
					c-50.175-41.323-82.428-105.603-82.428-178.48c0-17.608,1.902-34.775,5.479-51.296l-307.57-114.972
					c-16.534,53.784-25.461,111.027-25.461,170.34C1311.98,2055.395,1409.025,2224.519,1554.17,2320.213z"/>
			</g>
			<g>
				<path style="fill:#BDD0FB;" d="M1894.538,1625.822c96.845,16.198,171.275,99.758,180.115,202.875l467.358,15.662
					c0-0.22,0.003-0.439,0.003-0.659c0-381.385-273.035-708.616-639.086-751.833L1894.538,1625.822z"/>
			</g>
		</g>
		<g>
			<g>
				<path style="fill:#91B3FA;" d="M3031.412,1197.319h-786.732c-13.514,0-24.469-10.955-24.469-24.469V774.295
					c0-13.514,10.955-24.469,24.469-24.469h786.732c13.514,0,24.469,10.955,24.469,24.469v398.555
					C3055.881,1186.364,3044.926,1197.319,3031.412,1197.319z"/>
				<path style="fill:#91B3FA;" d="M2477.673,1197.121l65.009,88.835c6.373,8.709,19.669,7.72,24.684-1.835l45.662-86.999H2477.673z
					"/>
			</g>
			<path style="fill:#FFFFFF;" d="M2835.33,934.388c-2.958-55.508-40.679-102.143-87.657-108.048
				c-37.363-4.695-70.608,16.424-88.305,50.595c-17.739-35.851-51.292-60.295-89.362-59.258
				c-48.416,1.32-87.744,45.28-90.844,101.849c-2.049,37.379,11.515,71.734,33.785,94.894l136.668,111.317
				c5.903,4.808,13.602,5.025,19.494,0.554l133.866-101.565C2824.334,1003.61,2837.284,971.042,2835.33,934.388z"/>
		</g>
		<g>
			
				<linearGradient id="SVGID_00000132072797697468712750000003910250156243765148_" gradientUnits="userSpaceOnUse" x1="1223.3125" y1="2710.9907" x2="2535.959" y2="2710.9907">
				<stop  offset="0" style="stop-color:#4F52FF"/>
				<stop  offset="1" style="stop-color:#4042E2"/>
			</linearGradient>
			<path style="fill:url(#SVGID_00000132072797697468712750000003910250156243765148_);" d="M2514.354,2801.954H1244.918
				c-11.932,0-21.605-9.673-21.605-21.606v-138.714c0-11.932,9.673-21.606,21.605-21.606h1269.436
				c11.932,0,21.605,9.673,21.605,21.606v138.714C2535.959,2792.28,2526.286,2801.954,2514.354,2801.954z"/>
			<g>
				
					<linearGradient id="SVGID_00000036212687276404094610000004302495584202532493_" gradientUnits="userSpaceOnUse" x1="1350.2286" y1="2673.5476" x2="1410.1383" y2="2673.5476">
					<stop  offset="0" style="stop-color:#DAE3FE"/>
					<stop  offset="1" style="stop-color:#E9EFFD"/>
				</linearGradient>
				<path style="fill:url(#SVGID_00000036212687276404094610000004302495584202532493_);" d="M1410.138,2670.486
					c0,16.544-13.411,34.404-29.955,34.404c-16.544,0-29.955-17.86-29.955-34.404c0-16.543,13.411-28.28,29.955-28.28
					C1396.727,2642.206,1410.138,2653.942,1410.138,2670.486z"/>
				
					<linearGradient id="SVGID_00000029764390556555396730000002791116613311036297_" gradientUnits="userSpaceOnUse" x1="1322.2729" y1="2741.5127" x2="1437.7753" y2="2741.5127">
					<stop  offset="0" style="stop-color:#DAE3FE"/>
					<stop  offset="1" style="stop-color:#E9EFFD"/>
				</linearGradient>
				<path style="fill:url(#SVGID_00000029764390556555396730000002791116613311036297_);" d="M1343.009,2768.584h73.125
					c7.698,0,14.513-4.975,16.858-12.307l3.935-12.298c2.881-9.005-1.803-18.754-10.682-22.001
					c-29.759-10.881-60.531-9.485-92.054,1.004c-8.831,2.938-13.731,12.384-11.295,21.367l3.03,11.169
					C1328.018,2763.23,1335.018,2768.584,1343.009,2768.584z"/>
			</g>
			
				<linearGradient id="SVGID_00000013180649487538934670000011038181304426519453_" gradientUnits="userSpaceOnUse" x1="1953.5594" y1="2705.3948" x2="2086.4834" y2="2705.3948">
				<stop  offset="0" style="stop-color:#DAE3FE"/>
				<stop  offset="1" style="stop-color:#E9EFFD"/>
			</linearGradient>
			<path style="fill:url(#SVGID_00000013180649487538934670000011038181304426519453_);" d="M2074.842,2655.65
				c-14.126-13.884-36.157-9.708-51.325,3.026c-2.174,1.825-5.325,1.846-7.529,0.059c-15.37-12.465-37.378-16.26-51.261-2.137
				c-15.073,15.336-14.861,39.985,0.474,55.058l51.311,50.435c2.331,2.291,6.079,2.258,8.37-0.073l50.435-51.311
				C2090.389,2695.373,2090.177,2670.723,2074.842,2655.65z"/>
			
				<linearGradient id="SVGID_00000128457228572993945160000003812313423765548721_" gradientUnits="userSpaceOnUse" x1="1493.057" y1="2713.2019" x2="1837.4197" y2="2713.2019">
				<stop  offset="0" style="stop-color:#DAE3FE"/>
				<stop  offset="1" style="stop-color:#E9EFFD"/>
			</linearGradient>
			<path style="fill:url(#SVGID_00000128457228572993945160000003812313423765548721_);" d="M1826.805,2751.777h-323.133
				c-5.838,0-10.615-4.777-10.615-10.615v-55.92c0-5.838,4.777-10.615,10.615-10.615h323.133c5.838,0,10.615,4.777,10.615,10.615
				v55.92C1837.42,2747,1832.643,2751.777,1826.805,2751.777z"/>
			
				<linearGradient id="SVGID_00000013152072139268153840000005392152896679855532_" gradientUnits="userSpaceOnUse" x1="2155.9175" y1="2713.2019" x2="2391.8711" y2="2713.2019">
				<stop  offset="0" style="stop-color:#DAE3FE"/>
				<stop  offset="1" style="stop-color:#E9EFFD"/>
			</linearGradient>
			<path style="fill:url(#SVGID_00000013152072139268153840000005392152896679855532_);" d="M2383.085,2751.777h-218.381
				c-4.833,0-8.787-3.954-8.787-8.787v-59.576c0-4.833,3.954-8.787,8.787-8.787h218.381c4.833,0,8.786,3.954,8.786,8.787v59.576
				C2391.871,2747.823,2387.917,2751.777,2383.085,2751.777z"/>
		</g>
		<g>
			
				<linearGradient id="SVGID_00000026150669658491405160000005040518363827812019_" gradientUnits="userSpaceOnUse" x1="5933.4629" y1="1714.6866" x2="5869.9751" y2="1804.2612" gradientTransform="matrix(-1 0 0 1 8418.6396 0)">
				<stop  offset="0" style="stop-color:#FEBBBA"/>
				<stop  offset="1" style="stop-color:#FF928E"/>
			</linearGradient>
			<path style="fill:url(#SVGID_00000026150669658491405160000005040518363827812019_);" d="M2504.91,1765.005
				c0,0,8.917-16.13,7.96-29.106c-0.959-12.976,7.127-32.034-1.478-30.623s-10.38,0.26-12.717,15.831
				C2496.339,1736.678,2475.331,1794.11,2504.91,1765.005z"/>
			<g>
				
					<linearGradient id="SVGID_00000103245598933823375420000012082362575826222499_" gradientUnits="userSpaceOnUse" x1="-5721.0073" y1="3153.6599" x2="-6187.0996" y2="3519.637" gradientTransform="matrix(1 0 0 1 8793.9688 0)">
					<stop  offset="0" style="stop-color:#09005D"/>
					<stop  offset="1" style="stop-color:#1A0F91"/>
				</linearGradient>
				<path style="fill:url(#SVGID_00000103245598933823375420000012082362575826222499_);" d="M2920.454,3247.127
					c-31.344-0.877-47.555-4.568-55.936-7.994c-0.02,3.116-0.001,6.289,0.099,9.574c0.108,3.51,2.708,6.313,5.906,6.293
					l172.096-1.111c5.492-0.035,8.701-6.405,6.322-11.44C3026.376,3244.312,2968.906,3248.482,2920.454,3247.127z"/>
				
					<linearGradient id="SVGID_00000087410203336693882280000011893590771470633388_" gradientUnits="userSpaceOnUse" x1="2953.73" y1="3181.9893" x2="2906.6697" y2="2193.7173">
					<stop  offset="0" style="stop-color:#09005D"/>
					<stop  offset="1" style="stop-color:#1A0F91"/>
				</linearGradient>
				<path style="fill:url(#SVGID_00000087410203336693882280000011893590771470633388_);" d="M2871.862,3181.141
					c3.941-13.994,16.863-23.488,31.393-23.03l14.372,0.455c76.491,18.341,115.2,60.628,130.399,81.865
					c0.295,0.413,0.474,0.86,0.681,1.298c-22.565,1.864-80.035,6.034-128.486,4.679c-31.343-0.878-47.555-4.569-55.937-7.995
					C2864.428,3213.945,2868.04,3194.715,2871.862,3181.141z"/>
			</g>
			
				<linearGradient id="SVGID_00000179646657270943114570000001174294308600734119_" gradientUnits="userSpaceOnUse" x1="5510.4937" y1="3053.4971" x2="5486.021" y2="3267.0769" gradientTransform="matrix(-1 0 0 1 8418.6396 0)">
				<stop  offset="0" style="stop-color:#FEBBBA"/>
				<stop  offset="1" style="stop-color:#FF928E"/>
			</linearGradient>
			<path style="fill:url(#SVGID_00000179646657270943114570000001174294308600734119_);" d="M2941.793,3109.19l-12.021,57.863
				c-0.88,4.24-4.138,7.415-8.084,7.786c-4.83,0.453-11.706,0.719-18.622-0.297c-6.201-0.91-10.52-7.212-9.419-13.975l8.355-51.377
				H2941.793z"/>
			<g>
				
					<linearGradient id="SVGID_00000120539055217085171940000018405101201997194121_" gradientUnits="userSpaceOnUse" x1="5878.3975" y1="3153.6599" x2="5412.3062" y2="3519.636" gradientTransform="matrix(-1 0 0 1 8418.6396 0)">
					<stop  offset="0" style="stop-color:#09005D"/>
					<stop  offset="1" style="stop-color:#1A0F91"/>
				</linearGradient>
				<path style="fill:url(#SVGID_00000120539055217085171940000018405101201997194121_);" d="M2692.75,3247.127
					c31.344-0.877,47.555-4.568,55.937-7.994c0.02,3.116,0.001,6.289-0.099,9.574c-0.109,3.51-2.708,6.313-5.907,6.293
					l-172.095-1.111c-5.492-0.035-8.702-6.405-6.322-11.44C2586.829,3244.312,2644.298,3248.482,2692.75,3247.127z"/>
				
					<linearGradient id="SVGID_00000005262357549863975180000014182143748830058923_" gradientUnits="userSpaceOnUse" x1="2654.4636" y1="3196.24" x2="2607.4031" y2="2207.9639">
					<stop  offset="0" style="stop-color:#09005D"/>
					<stop  offset="1" style="stop-color:#1A0F91"/>
				</linearGradient>
				<path style="fill:url(#SVGID_00000005262357549863975180000014182143748830058923_);" d="M2564.264,3242.448
					c0.208-0.439,0.385-0.886,0.681-1.298c15.198-21.236,53.908-63.524,130.399-81.865l36.694-1.158c0,0,16.34,28.399,16.648,81.005
					c-8.381,3.426-24.593,7.117-55.937,7.994C2644.298,3248.482,2586.829,3244.312,2564.264,3242.448z"/>
			</g>
			
				<linearGradient id="SVGID_00000183959557641416848090000004641951885663776699_" gradientUnits="userSpaceOnUse" x1="5709.8408" y1="3076.3391" x2="5685.3682" y2="3289.918" gradientTransform="matrix(-1 0 0 1 8418.6396 0)">
				<stop  offset="0" style="stop-color:#FEBBBA"/>
				<stop  offset="1" style="stop-color:#FF928E"/>
			</linearGradient>
			<path style="fill:url(#SVGID_00000183959557641416848090000004641951885663776699_);" d="M2738.843,3102.515
				c-0.407,2.736-5.437,44.307-7.385,60.426c-0.463,3.83-3.236,6.794-6.735,7.211c-6.248,0.746-16.359,1.425-25.205-0.388
				c-4.772-0.977-8.227-5.562-8.227-10.892v-65.255L2738.843,3102.515z"/>
			
				<linearGradient id="SVGID_00000065771173815877178030000003459598341310803119_" gradientUnits="userSpaceOnUse" x1="2838.4697" y1="2753.2842" x2="3564.5486" y2="1838.9624">
				<stop  offset="0" style="stop-color:#09005D"/>
				<stop  offset="1" style="stop-color:#1A0F91"/>
			</linearGradient>
			<path style="fill:url(#SVGID_00000065771173815877178030000003459598341310803119_);" d="M2768.283,2343.863
				c0,0-88.505,336.351-86.906,759.615c0.029,7.717,5.448,14.377,12.999,15.968c11.128,2.343,27.486,5.126,41.028,4.747
				c7.229-0.203,13.272-5.564,14.488-12.693c12.41-72.775,83.627-482.755,124.204-549.314c0,0,26.696,365.147,18.162,554.587
				c-0.212,4.711,3.237,8.797,7.921,9.338c7.106,0.822,18.472,1.446,32.938-0.091c5.492-0.583,9.922-4.734,10.706-10.2
				c8.839-61.591,59.717-428.209,57.554-692.306c-0.122-14.893-39.386-79.649-39.386-79.649H2768.283z"/>
			
				<linearGradient id="SVGID_00000118359260166709923410000016257365045831390123_" gradientUnits="userSpaceOnUse" x1="5373.2065" y1="1967.8647" x2="5459.0205" y2="1721.4958" gradientTransform="matrix(-1 0 0 1 8418.6396 0)">
				<stop  offset="0" style="stop-color:#53D8FF"/>
				<stop  offset="1" style="stop-color:#3840F7"/>
			</linearGradient>
			<path style="fill:url(#SVGID_00000118359260166709923410000016257365045831390123_);" d="M3044.175,2051.337
				c24.057-65.839,15.329-145.341,15.239-146.136l-6.628,0.758c0.087,0.78,8.629,78.758-14.881,143.088L3044.175,2051.337z"/>
			<g>
				
					<linearGradient id="SVGID_00000130604843957502139510000010200806590716529843_" gradientUnits="userSpaceOnUse" x1="2517.5483" y1="1874.0638" x2="2967.9863" y2="1457.2412">
					<stop  offset="0" style="stop-color:#FEBBBA"/>
					<stop  offset="1" style="stop-color:#FF928E"/>
				</linearGradient>
				<path style="fill:url(#SVGID_00000130604843957502139510000010200806590716529843_);" d="M2427.49,2078.878
					c-19.862-108.057,8.641-286.144,8.641-286.144l38.823,40.235c0,0,6.556,145.376,34.195,205.538
					C2490.958,2040.675,2455.693,2048.797,2427.49,2078.878z"/>
				
					<linearGradient id="SVGID_00000180332739402557825480000006798369273583668103_" gradientUnits="userSpaceOnUse" x1="2980.6304" y1="1944.6768" x2="2448.8289" y2="2536.9673">
					<stop  offset="0" style="stop-color:#4F52FF"/>
					<stop  offset="1" style="stop-color:#4042E2"/>
				</linearGradient>
				<path style="fill:url(#SVGID_00000180332739402557825480000006798369273583668103_);" d="M2509.149,2038.507
					c5.217,11.356,11.183,19.689,18,23.421c24.956,13.703,73.372-64.485,109.455-132.251c25.951-48.706,45.55-92.014,45.55-92.014
					c25.952-29.316,90.23-33.344,150.023-29.607c62.243,3.862,119.545,16.112,123.698,17.025c0.166,0.042,0.249,0.042,0.249,0.042
					c28.651,3.778,53.523,6.934,71.503,9.218c21.011,2.657,40.236,13.037,54.105,29.066
					c54.934,63.572,175.517,237.678,33.592,413.113c-18.145-10.09-43.972-26.244-61.495-44.97
					c15.696-44.263,16.982-100.819-15.904-170.203c-1.121,5.523-2.533,10.963-4.194,16.319
					c-45.384,143.669-47.792,263.256-47.668,290.785c0,3.78-2.243,7.142-5.73,8.512c-59.668,23.917-174.605,9.675-213.137,3.944
					c-7.101-1.037-11.835-7.639-10.88-14.74c11.502-83.336-19.89-199.352-52.028-290.246
					c-188.596,186.895-255.957,116.329-276.796,2.957C2455.693,2048.797,2490.958,2040.675,2509.149,2038.507z"/>
			</g>
			
				<linearGradient id="SVGID_00000040554810058087408440000009653809169096873097_" gradientUnits="userSpaceOnUse" x1="5303.3027" y1="2349.6877" x2="5519.9785" y2="2349.6877" gradientTransform="matrix(-1 0 0 1 8418.6396 0)">
				<stop  offset="0" style="stop-color:#FEBBBA"/>
				<stop  offset="1" style="stop-color:#FF928E"/>
			</linearGradient>
			<path style="fill:url(#SVGID_00000040554810058087408440000009653809169096873097_);" d="M2948.412,2352.147
				c16.379-9.189,79.902-48.639,105.429-120.598c17.529,18.708,43.336,34.874,61.497,44.956
				c-27.121,33.524-63.82,67.096-112.403,99.955l0,0c-1.723,37.39-30.464,51.23-37.038,63.342
				c-6.575,12.111,2.768,9.342-1.384,24.567c-4.153,15.225-47.751-24.222-58.133-33.219c-10.381-8.996-4.152-33.91-4.152-33.91
				s-0.692-5.19-3.46-15.571C2896.004,2371.309,2948.198,2352.225,2948.412,2352.147z"/>
			<g>
				
					<linearGradient id="SVGID_00000177455389246935573390000007167526655310919102_" gradientUnits="userSpaceOnUse" x1="5564.5586" y1="1685.6826" x2="5471.1177" y2="2089.4807" gradientTransform="matrix(-1 0 0 1 8418.6396 0)">
					<stop  offset="0" style="stop-color:#FEBBBA"/>
					<stop  offset="1" style="stop-color:#FF928E"/>
				</linearGradient>
				<path style="fill:url(#SVGID_00000177455389246935573390000007167526655310919102_);" d="M2924.688,1717.126l11.504,117.535
					c0,0-66.119,19.914-114.21-14.017l33.807-106.82L2924.688,1717.126z"/>
				<g>
					
						<linearGradient id="SVGID_00000117664448614023554530000009001762046404685697_" gradientUnits="userSpaceOnUse" x1="4109.3281" y1="1146.6547" x2="3943.5635" y2="1365.9481" gradientTransform="matrix(-0.9332 -0.3594 -0.3594 0.9332 7089.4023 2036.3817)">
						<stop  offset="0" style="stop-color:#FEBBBA"/>
						<stop  offset="1" style="stop-color:#FF928E"/>
					</linearGradient>
					<path style="fill:url(#SVGID_00000117664448614023554530000009001762046404685697_);" d="M2812.456,1616.962
						c-0.786,2.04-4.109,146.498-4.109,146.498l82.524,0.144l23.491-136.448C2914.362,1627.156,2825.604,1582.819,2812.456,1616.962
						z"/>
					
						<linearGradient id="SVGID_00000103225323378053169590000008740590151370840247_" gradientUnits="userSpaceOnUse" x1="3982.7314" y1="1199.3179" x2="4180.7417" y2="1199.3179" gradientTransform="matrix(-0.9332 -0.3594 -0.3594 0.9332 7089.4023 2036.3817)">
						<stop  offset="0" style="stop-color:#09005D"/>
						<stop  offset="1" style="stop-color:#1A0F91"/>
					</linearGradient>
					<path style="fill:url(#SVGID_00000103225323378053169590000008740590151370840247_);" d="M2886.078,1644.214
						c2.681,2.517,4.045,6.108,3.706,9.77l-6.644,71.745c-0.101,1.088-0.337,2.142-0.736,3.161
						c-2.198,5.613-10.631,22.919-28.194,13.316c-14.971-8.185-28.841-15.501-40.106-15.853
						c-6.578-0.206-12.006,5.092-12.133,11.672c-0.261,13.554-0.236,40.916,3.201,65.222c0.861,6.092,6.317,10.456,12.457,10.068
						c16.204-1.024,47.787-3.969,73.152-12.117c4.167-1.339,7.243-4.847,8.038-9.151c3.496-18.939,13.511-71.983,18.643-86.521
						c4.768-13.507,23.299-18.184,31.956-19.654c3.286-0.558,6.169-2.435,7.997-5.222c5.484-8.357,13.388-26.405-8.351-40.082
						c-5.405-3.4-6.963-10.642-3.674-16.115c5.892-9.809,10.128-24.941-7.059-37.889c-17.399-13.106-34.255-6.934-44.578-0.322
						c-4.568,2.925-10.718,2.748-14.752-0.878c-1.794-1.612-4.255-2.539-7.6-1.693c-6.31,1.596-12.609-1.847-14.247-8.145
						c-2.809-10.799-10.427-22.92-30.349-24.011c-36.539-2-49.411,36.058-45.345,61.008c4.068,24.951,43.805,24.868,65.37,17.676
						C2862.673,1624.919,2878.69,1637.279,2886.078,1644.214z"/>
					
						<linearGradient id="SVGID_00000071548647823885004090000010925233398337776517_" gradientUnits="userSpaceOnUse" x1="3866.5454" y1="1320.3186" x2="3999.5044" y2="1183.9063" gradientTransform="matrix(-0.9332 -0.3594 -0.3594 0.9332 7089.4023 2036.3817)">
						<stop  offset="0" style="stop-color:#FEBBBA"/>
						<stop  offset="1" style="stop-color:#FF928E"/>
					</linearGradient>
					<path style="fill:url(#SVGID_00000071548647823885004090000010925233398337776517_);" d="M2914.743,1732.008
						c0,0-5.22-43.779,11.893-50.305c17.115-6.526,37.937,3.64,26.404,31.861
						C2938.694,1748.668,2914.743,1732.008,2914.743,1732.008z"/>
				</g>
			</g>
			<g>
				
					<linearGradient id="SVGID_00000176000999482652155430000002133388877390956983_" gradientUnits="userSpaceOnUse" x1="2794.0535" y1="1979.3918" x2="3560.4692" y2="1723.9208">
					<stop  offset="0" style="stop-color:#09005D"/>
					<stop  offset="1" style="stop-color:#1A0F91"/>
				</linearGradient>
				<path style="fill:url(#SVGID_00000176000999482652155430000002133388877390956983_);" d="M2702.915,2071.976
					c0.084,0,0.172-0.006,0.259-0.016c1.137-0.142,1.944-1.178,1.802-2.317c-0.113-0.913-11.301-91.653-5.228-117.796
					c0.26-1.117-0.434-2.232-1.552-2.491c-1.109-0.276-2.234,0.434-2.492,1.551c-6.24,26.858,4.684,115.491,5.152,119.251
					C2700.986,2071.208,2701.882,2071.976,2702.915,2071.976z"/>
			</g>
			<g>
				
					<linearGradient id="SVGID_00000181057032403496751950000003921683798422621317_" gradientUnits="userSpaceOnUse" x1="6006.2217" y1="1664.9678" x2="5783.854" y2="1978.7053" gradientTransform="matrix(-1 0 0 1 8418.6396 0)">
					<stop  offset="0" style="stop-color:#09005D"/>
					<stop  offset="1" style="stop-color:#1A0F91"/>
				</linearGradient>
				<path style="fill:url(#SVGID_00000181057032403496751950000003921683798422621317_);" d="M2439.888,1668.681
					c0.098-2.437,1.274-4.703,3.209-6.185c1.935-1.482,4.429-2.027,6.807-1.485l59.351,13.5c2.304,0.524,3.847,2.696,3.584,5.045
					l-17.257,154.261c-0.075,0.665-0.412,1.273-0.937,1.689c-0.524,0.415-1.193,0.604-1.857,0.523l-51.807-6.277
					c-4.244-0.514-7.381-4.2-7.21-8.472L2439.888,1668.681z"/>
				<path style="fill:#91B3FA;" d="M2456.58,1677.581c0.076-1.383,0.767-2.659,1.882-3.48c1.115-0.821,2.537-1.103,3.881-0.766
					l39.049,9.762c2.259,0.565,3.75,2.713,3.488,5.026l-14.816,131.367c-0.078,0.689-0.438,1.315-0.993,1.73
					c-0.555,0.414-1.257,0.581-1.94,0.459l-36.009-6.408c-1.25-0.222-2.136-1.342-2.065-2.609L2456.58,1677.581z"/>
			</g>
			
				<linearGradient id="SVGID_00000083062767762035244130000010357481116303614359_" gradientUnits="userSpaceOnUse" x1="2757.2056" y1="1744.9479" x2="2205.926" y2="1744.9479">
				<stop  offset="0" style="stop-color:#FEBBBA"/>
				<stop  offset="0.5304" style="stop-color:#FEB9B8"/>
				<stop  offset="0.7214" style="stop-color:#FEB3B1"/>
				<stop  offset="0.8575" style="stop-color:#FEA8A6"/>
				<stop  offset="0.9668" style="stop-color:#FF9895"/>
				<stop  offset="1" style="stop-color:#FF928E"/>
			</linearGradient>
			<path style="fill:url(#SVGID_00000083062767762035244130000010357481116303614359_);" d="M2419.275,1707.876
				c9.59-3.535,28.353-36.006,31.947-25.323c3.594,10.683-1.518,25.323,0,29.865c1.518,4.544,11.899,29.784,7.228,41.394
				c-3.371,8.378-8.932,34.16-11.767,47.865c-0.941,4.548-4.946,7.812-9.593,7.814c-4.646,0.003-8.654-3.256-9.6-7.804
				C2427.111,1799.862,2409.686,1711.408,2419.275,1707.876z"/>
		</g>
	</g>
</g>
</svg>
