<?xml version="1.0" encoding="utf-8"?>
<!-- Generator: Adobe Illustrator 27.5.0, SVG Export Plug-In . SVG Version: 6.00 Build 0)  -->
<svg version="1.1" xmlns="http://www.w3.org/2000/svg" xmlns:xlink="http://www.w3.org/1999/xlink" x="0px" y="0px"
	 viewBox="0 0 3710 3710" style="enable-background:new 0 0 3710 3710;" xml:space="preserve">
<g id="Background">
	<g>
		<g>
			<rect style="fill:#FFFFFF;" width="3710" height="3710"/>
		</g>
	</g>
</g>
<g id="Illustration">
	<g>
		<linearGradient id="SVGID_1_" gradientUnits="userSpaceOnUse" x1="3475.262" y1="3648.4373" x2="1533.4562" y2="1581.3542">
			<stop  offset="0" style="stop-color:#DAE3FE"/>
			<stop  offset="1" style="stop-color:#E9EFFD"/>
		</linearGradient>
		<path style="fill:url(#SVGID_1_);" d="M2901.416,2810.987c-72.325,73.308-137.039,116.4-186.586,148.932
			c-483.223,317.275-1035.6,225.829-1206.381,194.573c-275.534-50.428-508.124-86.003-707.959-263.537
			c-454.087-403.412-432.001-1244.959-85.023-1766.261c41.141-61.812,387.594-566.802,941.166-637.96
			c13.54-1.74,23.642-2.732,32.49-3.653c85.636-8.916,616.308-55.972,1049.018,300.51c61.941,51.029,161.62,143.071,254.056,283.451
			C3330.183,1580.335,3331.254,2375.312,2901.416,2810.987z"/>
		<g>
			<path style="fill:#BDD0FB;" d="M3235.785,470.524c2.906-12.369-14.494-20.591-25.149-11.951
				c-108.196,87.736-368.158,350.465-303.37,809.603c81.286,576.057-57.682,786.256-230.663,914.473
				c0,0,237.56-60.296,387.021-273.587C3430.585,1385.382,3184.119,690.456,3235.785,470.524z"/>
			<path style="fill:#FFFFFF;" d="M3153.446,650.45c-13.535,64.129-25.599,128.455-34.921,193.07
				c-9.714,64.561-17.157,129.347-22.251,194.24c-4.805,64.905-8.199,129.877-8.392,194.877
				c-0.531,64.997,2.171,129.94,5.148,195.136c2.554,65.173,5.556,130.815,0.785,196.923
				c-4.691,65.973-18.578,132.522-46.136,194.907c-6.889,15.548-14.133,31.048-22.362,46.025
				c-7.911,15.115-16.599,29.932-25.592,44.608c-18.157,29.282-38.597,57.573-61.374,84.426
				c-45.719,53.614-100.859,101.174-161.603,141.426c-6.393,4.236-15.553,3.195-20.46-2.326c-4.818-5.42-3.741-13.146,2.353-17.434
				l0.043-0.03c14.453-10.151,28.755-20.433,42.476-31.229c6.962-5.305,13.636-10.865,20.429-16.314
				c6.546-5.665,13.349-11.112,19.685-16.946c25.793-22.957,49.689-47.451,71.368-73.349
				c43.606-51.555,78.515-109.005,104.962-168.562c12.838-29.917,23.101-60.598,30.594-91.856
				c7.466-31.265,12.162-63.074,14.759-95.139c5.201-64.165,2.852-129.158,0.84-194.343c-1.914-65.202-3.318-130.734-1.598-196.213
				c0.758-32.738,2.197-65.46,4.314-98.143c0.949-16.346,2.265-32.674,3.547-49c1.463-16.316,3.031-32.624,4.751-48.916
				c7.023-65.163,16.346-130.109,28.031-194.711c12.044-64.552,26.068-128.807,42.935-192.487c0.483-1.821,2.581-2.958,4.689-2.542
				C3152.515,646.953,3153.815,648.684,3153.446,650.45z"/>
		</g>
		<g>
			<g>
				<path style="fill:#91B3FA;" d="M2897.911,2053.452c12.411,19.954,41.167,20.748,54.91,1.687
					c75.832-105.172,263.344-421.919,146.686-854.053c-98.513-364.917-117.253-572.153-119.241-666.819
					c-0.421-20.018-26.152-27.864-37.702-11.509C2815.131,703.203,2448.191,1330.416,2897.911,2053.452z"/>
				<path style="fill:#FFFFFF;" d="M2929.075,2047.035c0.542,0.214,1.11,0.379,1.705,0.489c4.981,0.927,9.771-2.359,10.698-7.34
					c1.051-5.647,103.8-570.569-10.255-1084.15c-1.099-4.942-5.998-8.062-10.947-6.968c-4.947,1.1-8.065,5.999-6.969,10.947
					c113.227,509.843,11.176,1071.204,10.132,1076.813C2922.622,2041.213,2925.073,2045.452,2929.075,2047.035z"/>
			</g>
		</g>
		<g>
			<g>
				<g style="opacity:0.3;">
					<path style="fill:#91B3FA;" d="M1030.936,1031.411c-4.966-0.672-8.724-5.002-8.569-10.12c0.336-11.194,1.165-22.54,2.46-33.721
						c0.631-5.44,5.55-9.34,10.989-8.709c0.065,0.009,0.129,0.017,0.192,0.026c5.338,0.722,9.139,5.59,8.516,10.964
						c-1.232,10.623-2.017,21.401-2.338,32.034c-0.163,5.472-4.734,9.778-10.208,9.613
						C1031.625,1031.489,1031.278,1031.458,1030.936,1031.411z M1043.146,945.907c-0.384-0.052-0.77-0.127-1.156-0.226
						c-5.302-1.366-8.494-6.773-7.129-12.075c2.808-10.891,6.108-21.77,9.811-32.332c1.811-5.168,7.444-7.88,12.636-6.079
						c5.167,1.813,7.886,7.472,6.076,12.635c-3.519,10.041-6.654,20.375-9.32,30.726
						C1052.798,943.473,1048.056,946.572,1043.146,945.907z M1073.879,865.219c-1.094-0.148-2.182-0.483-3.219-1.018
						c-4.864-2.514-6.773-8.494-4.261-13.359c5.148-9.973,10.796-19.846,16.786-29.345c2.924-4.63,9.045-6.011,13.675-3.098
						c4.63,2.92,6.018,9.044,3.098,13.675c-5.689,9.02-11.05,18.393-15.94,27.865
						C1082.042,863.767,1077.916,865.765,1073.879,865.219z M1121.893,793.413c-1.808-0.245-3.569-0.991-5.064-2.256
						c-4.18-3.536-4.701-9.792-1.166-13.972c7.256-8.573,14.969-16.937,22.924-24.857c3.881-3.856,10.155-3.844,14.021,0.033
						c3.862,3.879,3.847,10.157-0.032,14.021c-7.555,7.521-14.882,15.464-21.774,23.613
						C1128.529,792.677,1125.138,793.852,1121.893,793.413z M1184.713,734.118c-2.535-0.343-4.936-1.661-6.594-3.866
						c-3.292-4.377-2.413-10.592,1.964-13.881c8.953-6.734,18.323-13.181,27.846-19.154c4.636-2.914,10.756-1.515,13.667,3.126
						c2.909,4.638,1.509,10.756-3.129,13.669c-9.053,5.677-17.957,11.804-26.467,18.203
						C1189.829,733.849,1187.207,734.456,1184.713,734.118z M1259.079,690.2c-3.283-0.444-6.269-2.521-7.726-5.766
						c-2.241-4.997-0.01-10.862,4.985-13.105c10.237-4.594,20.802-8.809,31.396-12.518c5.171-1.81,10.824,0.913,12.634,6.082
						c1.81,5.165-0.913,10.823-6.08,12.633c-10.067,3.527-20.103,7.528-29.83,11.894
						C1262.707,690.206,1260.851,690.44,1259.079,690.2z M1622.259,715.503c-1.361-0.184-2.702-0.654-3.939-1.432
						c-9.019-5.667-18.407-11.017-27.904-15.897c-4.869-2.503-6.788-8.48-4.285-13.347c2.501-4.871,8.478-6.79,13.349-4.287
						c10.001,5.14,19.89,10.772,29.389,16.739c4.637,2.914,6.033,9.034,3.12,13.67
						C1629.854,714.35,1625.993,716.008,1622.259,715.503z M1341.277,663.872c-4.076-0.551-7.539-3.622-8.391-7.88
						c-1.075-5.37,2.406-10.593,7.774-11.669c11.004-2.204,22.238-3.956,33.391-5.207c5.443-0.585,10.349,3.303,10.959,8.747
						c0.61,5.44-3.307,10.347-8.749,10.959c-10.591,1.186-21.258,2.85-31.708,4.942
						C1343.442,663.985,1342.338,664.015,1341.277,663.872z M1544.415,678.096c-0.648-0.088-1.298-0.238-1.94-0.462
						c-10.065-3.507-20.416-6.622-30.762-9.268c-5.305-1.359-8.506-6.758-7.15-12.062c1.358-5.303,6.758-8.531,12.062-7.15
						c10.886,2.785,21.778,6.064,32.369,9.751c5.171,1.802,7.904,7.455,6.103,12.624
						C1553.521,676.057,1548.99,678.714,1544.415,678.096z M1427.294,656.564c-4.958-0.671-8.714-4.989-8.57-10.101
						c0.154-5.474,4.716-9.785,10.19-9.635c11.206,0.316,22.55,1.12,33.715,2.395c0.069,0.005,0.141,0.015,0.21,0.024
						c5.33,0.721,9.129,5.577,8.518,10.946c-0.621,5.442-5.532,9.35-10.973,8.727c-10.605-1.208-21.38-1.97-32.028-2.269
						C1427.997,656.64,1427.642,656.611,1427.294,656.564z"/>
					<path style="fill:#91B3FA;" d="M1677.615,757.721c-1.934-0.262-3.813-1.094-5.362-2.515c-3.767-3.456-7.67-6.888-11.598-10.209
						c-4.182-3.532-4.71-9.789-1.176-13.97c3.532-4.184,9.792-4.717,13.972-1.174c4.134,3.49,8.237,7.101,12.202,10.736
						c4.035,3.7,4.308,9.974,0.609,14.007C1683.981,757.085,1680.724,758.141,1677.615,757.721z"/>
				</g>
				<g style="opacity:0.3;">
					<path style="fill:#91B3FA;" d="M1802.94,1032.778c-4.742-0.641-8.45-4.644-8.572-9.581c-0.124-5.109-0.357-10.303-0.695-15.433
						c-0.359-5.465,3.779-10.185,9.242-10.544c5.487-0.36,10.185,3.781,10.544,9.242c0.354,5.401,0.601,10.871,0.733,16.251
						c0.133,5.474-4.196,10.019-9.67,10.154C1803.985,1032.88,1803.456,1032.847,1802.94,1032.778z"/>
					<path style="fill:#91B3FA;" d="M1365.56,1425.204c-4.521-0.611-9.048-1.302-13.581-2.072
						c-5.398-0.918-9.032-6.036-8.116-11.434s6.064-9.048,11.433-8.118c10.462,1.775,20.971,3.122,31.358,4.011
						c5.46,0.477,9.499,5.267,9.033,10.722c-0.467,5.459-5.269,9.503-10.724,9.035
						C1378.537,1426.799,1372.009,1426.076,1365.56,1425.204z M1301.093,1410.869c-0.549-0.074-1.101-0.196-1.648-0.368
						c-10.555-3.307-21.089-7.1-31.304-11.272c-5.068-2.069-7.5-7.857-5.431-12.924c2.071-5.07,7.871-7.513,12.927-5.43
						c9.703,3.962,19.709,7.562,29.739,10.709c5.224,1.637,8.132,7.2,6.495,12.422
						C1310.404,1408.685,1305.792,1411.504,1301.093,1410.869z M1437.128,1428.182c-4.632-0.627-8.311-4.473-8.562-9.31
						c-0.282-5.471,3.922-10.13,9.391-10.415c10.46-0.539,21.039-1.535,31.448-2.964c5.426-0.736,10.426,3.052,11.17,8.475
						c0.743,5.427-3.052,10.427-8.477,11.171c-10.96,1.503-22.103,2.552-33.119,3.121
						C1438.35,1428.292,1437.731,1428.263,1437.128,1428.182z M1223.263,1376.663c-1.247-0.169-2.481-0.582-3.637-1.25
						c-9.562-5.541-19.002-11.559-28.058-17.883c-4.488-3.135-5.585-9.314-2.449-13.802c3.136-4.492,9.313-5.591,13.804-2.451
						c8.598,6.005,17.562,11.719,26.644,16.981c4.739,2.743,6.352,8.812,3.607,13.548
						C1231.1,1375.386,1227.126,1377.186,1223.263,1376.663z M1520.95,1414.43c-3.799-0.514-7.118-3.221-8.221-7.15
						c-1.479-5.272,1.596-10.746,6.869-12.225c10.08-2.826,20.181-6.126,30.024-9.804c5.129-1.917,10.842,0.685,12.758,5.818
						c1.915,5.128-0.688,10.837-5.817,12.754c-10.362,3.874-20.997,7.348-31.611,10.325
						C1523.61,1414.524,1522.251,1414.606,1520.95,1414.43z M1599.727,1382.617c-3.037-0.411-5.843-2.22-7.408-5.125
						c-2.595-4.822-0.792-10.834,4.03-13.43c9.246-4.979,18.39-10.405,27.177-16.126c4.585-2.995,10.725-1.699,13.718,2.895
						c2.988,4.59,1.691,10.729-2.897,13.72c-9.248,6.022-18.87,11.731-28.599,16.969
						C1603.833,1382.552,1601.73,1382.888,1599.727,1382.617z M1669.694,1334.388c-2.31-0.313-4.519-1.436-6.165-3.339
						c-3.583-4.139-3.13-10.401,1.01-13.983c7.949-6.878,15.693-14.162,23.018-21.659c3.826-3.914,10.099-3.992,14.02-0.159
						c3.914,3.828,3.988,10.102,0.159,14.02c-7.71,7.887-15.86,15.558-24.223,22.794
						C1675.275,1333.998,1672.415,1334.756,1669.694,1334.388z M1727.474,1272.051c-1.601-0.216-3.169-0.827-4.56-1.856
						c-4.402-3.256-5.329-9.463-2.072-13.864c6.25-8.444,12.207-17.248,17.708-26.172c2.874-4.66,8.988-6.108,13.641-3.239
						c4.662,2.874,6.111,8.983,3.237,13.643c-5.795,9.4-12.069,18.673-18.646,27.562
						C1734.551,1271.136,1730.941,1272.52,1727.474,1272.051z M1770.176,1198.522c-0.9-0.122-1.798-0.372-2.671-0.756
						c-5.01-2.206-7.284-8.058-5.077-13.067c4.222-9.59,8.091-19.485,11.498-29.419c1.777-5.18,7.431-7.929,12.594-6.16
						c5.18,1.776,7.938,7.416,6.161,12.597c-3.587,10.457-7.66,20.876-12.107,30.97
						C1778.752,1196.825,1774.443,1199.099,1770.176,1198.522z M1795.663,1117.464c-0.202-0.027-0.404-0.063-0.606-0.101
						c-5.37-1.063-8.864-6.279-7.8-11.649c1.5-7.582,2.784-15.298,3.818-22.943c0.374-2.767,0.715-5.535,1.028-8.294
						c0.617-5.442,5.527-9.354,10.967-8.736c5.521,0.516,9.351,5.525,8.736,10.963c-0.329,2.906-0.688,5.812-1.082,8.725
						c-1.088,8.04-2.44,16.162-4.018,24.135C1805.685,1114.732,1800.815,1118.161,1795.663,1117.464z"/>
					<path style="fill:#91B3FA;" d="M1154.707,1325.993c-1.953-0.264-3.846-1.11-5.4-2.547c-3.938-3.647-7.874-7.447-11.697-11.293
						c-3.862-3.883-3.843-10.161,0.04-14.02c3.885-3.859,10.157-3.847,14.02,0.04c3.632,3.653,7.371,7.262,11.109,10.725
						c4.017,3.717,4.259,9.99,0.538,14.008C1161.036,1325.368,1157.796,1326.411,1154.707,1325.993z"/>
				</g>
				<g>
					<path style="fill:#91B3FA;" d="M1183.377,1213.83c1.033,1.685,3.022,2.53,4.952,2.102l55.063-12.195
						c18.524,18.722,40.167,34.626,64.387,46.792l5.44,56.097c0.19,1.968,1.609,3.598,3.531,4.059l65.782,15.778
						c1.923,0.46,3.926-0.349,4.988-2.015l30.293-47.527c27.104,0.143,53.605-4.212,78.606-12.496l43.542,35.844
						c1.526,1.256,3.681,1.406,5.366,0.373l57.671-35.359c1.686-1.034,2.53-3.023,2.102-4.952l-12.194-55.062
						c18.722-18.524,34.625-40.168,46.791-64.387l56.098-5.44c1.967-0.19,3.597-1.608,4.058-3.531l15.777-65.783
						c0.461-1.922-0.348-3.926-2.016-4.988l-47.527-30.293c0.144-27.104-4.211-53.605-12.496-78.606l35.844-43.542
						c1.255-1.525,1.406-3.681,0.373-5.366l-35.359-57.671c-1.033-1.686-3.022-2.53-4.952-2.102l-55.063,12.195
						c-18.523-18.723-40.167-34.626-64.387-46.792l-5.44-56.098c-0.191-1.967-1.608-3.597-3.531-4.059l-65.783-15.777
						c-1.922-0.462-3.925,0.348-4.988,2.015l-30.293,47.527c-27.104-0.145-53.606,4.212-78.607,12.496l-43.541-35.844
						c-1.526-1.257-3.682-1.406-5.367-0.373l-57.671,35.359c-1.685,1.033-2.529,3.022-2.102,4.952l12.194,55.062
						c-18.723,18.524-34.625,40.167-46.791,64.387l-56.098,5.44c-1.967,0.19-3.598,1.609-4.058,3.532l-15.777,65.781
						c-0.461,1.923,0.348,3.926,2.015,4.989l47.527,30.293c-0.143,27.103,4.213,53.605,12.496,78.606l-35.843,43.542
						c-1.257,1.526-1.406,3.681-0.373,5.367L1183.377,1213.83z"/>
					<g>
						<path style="fill:#BDD0FB;" d="M1409.755,1097.129c-32.847-4.443-58.427-32.464-58.834-66.573
							c-0.445-37.494,29.694-68.355,67.185-68.802c18.165-0.22,35.323,6.653,48.314,19.341
							c12.995,12.688,20.272,29.679,20.486,47.841c0.445,37.495-29.694,68.355-67.185,68.802
							C1416.342,1097.777,1413.011,1097.569,1409.755,1097.129z M1426.012,978.087c-2.537-0.343-5.112-0.504-7.719-0.473
							c-28.744,0.341-51.853,24.008-51.512,52.75c0.342,28.746,23.998,51.865,52.752,51.514c28.744-0.34,51.853-24.008,51.512-52.75
							c-0.166-13.927-5.743-26.953-15.707-36.683C1447.24,984.538,1437.029,979.577,1426.012,978.087z"/>
					</g>
					<path style="fill:#BDD0FB;" d="M1397.969,1194.64c-5.641-0.763-11.277-1.814-16.889-3.159l0,0
						c-1.766-0.423-3.526-0.875-5.278-1.355c-8.639-2.368-17.076-5.42-25.18-9.108c-0.11-0.05-0.221-0.1-0.331-0.15
						c-0.313-0.144-0.625-0.288-0.938-0.436c-0.609-0.282-1.214-0.571-1.818-0.859c-1.589-0.762-2.438-2.444-2.216-4.102
						c0.054-0.403,0.173-0.805,0.358-1.191c0.947-1.974,3.317-2.799,5.291-1.856c10.159,4.88,20.912,8.695,31.961,11.342
						c54.878,13.172,110.058-3.939,147.926-40.506c21.065-20.337,36.773-46.697,44.092-77.221c1.285-5.352,2.29-10.73,3.016-16.111
						c4.894-36.213-2.752-72.705-22.111-104.277c-22.235-36.268-57.265-61.707-98.631-71.628
						c-85.436-20.482-171.538,32.334-192.018,117.728c-1.263,5.265-2.255,10.575-2.974,15.906c-3.12,23.1-1.152,46.627,5.848,68.884
						c0.18,0.575,0.224,1.16,0.147,1.72c-0.199,1.474-1.225,2.777-2.74,3.252c-2.093,0.651-4.317-0.498-4.973-2.595
						c-7.348-23.367-9.417-48.068-6.141-72.319c0.755-5.596,1.796-11.168,3.12-16.695
						c21.502-89.656,111.958-145.088,201.581-123.594c43.429,10.415,80.2,37.121,103.543,75.196
						c20.325,33.145,28.35,71.454,23.214,109.472c-0.764,5.649-1.819,11.294-3.165,16.912
						c-10.418,43.431-37.122,80.204-75.195,103.547C1474.313,1191.761,1435.993,1199.783,1397.969,1194.64z"/>
				</g>
			</g>
			<g>
				<g style="opacity:0.3;">
					<path style="fill:#91B3FA;" d="M660.644,1244.974c-2.625-0.355-4.812-2.395-5.23-5.148c-0.783-5.139-1.421-10.372-1.894-15.553
						c-0.308-3.367,2.17-6.344,5.541-6.655c3.372-0.322,6.347,2.174,6.655,5.541c0.451,4.937,1.059,9.925,1.805,14.829
						c0.51,3.34-1.789,6.462-5.132,6.975C661.795,1245.051,661.21,1245.051,660.644,1244.974z"/>
					<path style="fill:#91B3FA;" d="M657.859,1197.953c-3.075-0.416-5.397-3.102-5.292-6.267c0.292-8.946,1.05-17.979,2.249-26.844
						c0.253-1.867,0.527-3.736,0.819-5.61c0.528-3.344,3.821-5.475,7-5.106c3.341,0.524,5.624,3.657,5.103,6.996
						c-0.281,1.79-0.544,3.578-0.786,5.361c-1.144,8.457-1.866,17.072-2.147,25.603c-0.11,3.382-2.939,6.029-6.319,5.922
						C658.273,1197.996,658.064,1197.98,657.859,1197.953z M667.712,1135.141c-0.287-0.039-0.578-0.096-0.863-0.177
						c-3.254-0.929-5.14-4.316-4.214-7.57c2.969-10.437,6.613-20.781,10.829-30.741c1.318-3.117,4.925-4.56,8.026-3.253
						c3.116,1.321,4.57,4.908,3.253,8.025c-4.022,9.503-7.496,19.37-10.329,29.324
						C673.569,1133.713,670.682,1135.542,667.712,1135.141z M692.503,1076.594c-0.77-0.104-1.532-0.359-2.247-0.769
						c-2.927-1.693-3.922-5.443-2.229-8.37c5.431-9.373,11.507-18.514,18.065-27.155c2.046-2.699,5.876-3.224,8.58-1.175
						c2.693,2.042,3.22,5.885,1.178,8.577c-6.253,8.242-12.047,16.95-17.224,25.893
						C697.344,1075.807,694.889,1076.917,692.503,1076.594z M730.93,1025.932c-1.257-0.17-2.469-0.732-3.448-1.679
						c-2.42-2.361-2.472-6.242-0.111-8.662c7.578-7.773,15.701-15.14,24.152-21.902c2.642-2.111,6.496-1.674,8.605,0.959
						c2.114,2.639,1.686,6.491-0.956,8.608c-8.055,6.442-15.807,13.473-23.03,20.883
						C734.734,1025.584,732.788,1026.183,730.93,1025.932z M780.564,986.193c-1.754-0.237-3.394-1.232-4.396-2.857
						c-1.774-2.877-0.877-6.648,2-8.425c9.229-5.685,18.896-10.859,28.732-15.369c3.076-1.418,6.71-0.064,8.119,3.011
						c1.409,3.075,0.06,6.712-3.011,8.119c-9.386,4.306-18.607,9.238-27.412,14.667C783.341,986.11,781.918,986.376,780.564,986.193
						z M838.331,959.708c-2.273-0.307-4.279-1.889-5.02-4.221c-1.021-3.221,0.766-6.661,3.988-7.685
						c10.333-3.273,20.969-5.932,31.608-7.896c3.337-0.605,6.519,1.588,7.135,4.912c0.615,3.324-1.585,6.52-4.908,7.132
						c-10.147,1.874-20.283,4.407-30.134,7.528C840.107,959.761,839.199,959.826,838.331,959.708z M900.804,948.154
						c-2.844-0.385-5.112-2.737-5.286-5.705c-0.198-3.376,2.378-6.274,5.754-6.475c10.785-0.635,21.751-0.6,32.596,0.1
						c3.378,0.276,5.936,3.138,5.714,6.511c-0.218,3.374-3.131,5.931-6.505,5.716c-10.345-0.675-20.804-0.707-31.087-0.101
						C901.585,948.224,901.189,948.206,900.804,948.154z M995.121,960.127c-0.349-0.047-0.704-0.125-1.054-0.239
						c-8.502-2.725-17.301-5.032-26.158-6.857c-1.34-0.284-2.659-0.547-3.978-0.792c-3.324-0.631-5.51-3.829-4.883-7.153
						c0.623-3.332,3.864-5.608,7.151-4.886c1.406,0.269,2.808,0.543,4.213,0.841c9.252,1.909,18.477,4.328,27.392,7.187
						c3.222,1.033,4.995,4.478,3.961,7.699C1000.846,958.795,998.01,960.517,995.121,960.127z"/>
				</g>
				<g style="opacity:0.3;">
					<path style="fill:#91B3FA;" d="M885.06,1462.591c-3.313-0.448-5.66-3.481-5.255-6.811c0.409-3.354,3.463-5.747,6.819-5.335
						c10.107,1.234,20.373,1.862,30.517,1.865c3.36,0.032,6.125,2.741,6.123,6.126c-0.002,3.385-2.747,6.121-6.126,6.123
						c-10.637-0.009-21.401-0.662-31.995-1.956C885.117,1462.598,885.087,1462.594,885.06,1462.591z M854.249,1456.933
						c-0.22-0.03-0.434-0.071-0.653-0.125c-10.352-2.546-20.653-5.75-30.619-9.518c-3.163-1.2-4.758-4.729-3.561-7.892
						c1.195-3.17,4.745-4.747,7.892-3.567c9.509,3.597,19.339,6.653,29.217,9.087c3.283,0.806,5.289,4.125,4.481,7.407
						C860.249,1455.397,857.306,1457.346,854.249,1456.933z M947.584,1462.599c-2.691-0.364-4.906-2.498-5.254-5.321
						c-0.413-3.351,1.971-6.407,5.328-6.822c10.111-1.251,20.227-3.123,30.075-5.575c3.292-0.804,6.604,1.183,7.418,4.467
						c0.818,3.279-1.183,6.604-4.464,7.422c-10.322,2.568-20.93,4.531-31.528,5.837
						C948.621,1462.673,948.094,1462.668,947.584,1462.599z M795.748,1434.767c-0.69-0.093-1.376-0.307-2.03-0.648
						c-9.442-4.964-18.672-10.563-27.429-16.642c-2.78-1.927-3.468-5.743-1.541-8.524c1.925-2.769,5.742-3.459,8.52-1.539
						c8.352,5.794,17.15,11.129,26.152,15.865c2.991,1.575,4.143,5.279,2.568,8.27
						C800.758,1433.888,798.225,1435.102,795.748,1434.767z M1008.25,1447.494c-2.148-0.291-4.077-1.716-4.903-3.879
						c-1.211-3.163,0.372-6.702,3.529-7.91c9.491-3.628,18.857-7.877,27.844-12.635c2.993-1.587,6.697-0.44,8.278,2.55
						c1.581,2.99,0.44,6.697-2.55,8.278c-9.424,4.983-19.244,9.441-29.194,13.249
						C1010.262,1447.525,1009.231,1447.627,1008.25,1447.494z M1063.524,1418.276c-1.644-0.223-3.191-1.108-4.211-2.573
						c-1.93-2.777-1.244-6.595,1.533-8.524c8.365-5.814,16.45-12.185,24.028-18.932c2.529-2.253,6.402-2.025,8.646,0.5
						c2.25,2.525,2.025,6.392-0.499,8.64c-7.945,7.077-16.419,13.758-25.184,19.85
						C1066.529,1418.145,1064.988,1418.474,1063.524,1418.276z M1110.211,1376.654c-1.155-0.156-2.279-0.64-3.219-1.473
						c-2.54-2.233-2.786-6.104-0.551-8.643c6.733-7.64,13.051-15.765,18.78-24.144c1.909-2.783,5.721-3.505,8.51-1.594
						c2.792,1.91,3.508,5.718,1.597,8.513c-6.009,8.782-12.635,17.305-19.694,25.323
						C1114.226,1376.232,1112.172,1376.919,1110.211,1376.654z"/>
					<path style="fill:#91B3FA;" d="M744.126,1398.935c-1.171-0.158-2.307-0.656-3.255-1.502c-3.909-3.491-7.73-7.116-11.363-10.769
						c-2.382-2.398-2.373-6.277,0.025-8.662c2.4-2.372,6.273-2.368,8.662,0.025c3.463,3.486,7.111,6.942,10.839,10.276
						c2.522,2.254,2.737,6.127,0.484,8.646C748.11,1398.52,746.073,1399.198,744.126,1398.935z"/>
				</g>
				<g>
					<path style="fill:#91B3FA;" d="M759.773,1321.226c0.691,1.127,2.022,1.693,3.313,1.406l36.846-8.16
						c12.395,12.528,26.877,23.17,43.085,31.311l3.64,37.537c0.127,1.317,1.076,2.407,2.363,2.716l44.018,10.558
						c1.287,0.308,2.627-0.234,3.338-1.348l20.27-31.803c18.137,0.096,35.87-2.818,52.6-8.362l29.136,23.985
						c1.022,0.84,2.464,0.941,3.592,0.249l38.59-23.66c1.128-0.692,1.693-2.023,1.407-3.314l-8.16-36.845
						c12.528-12.395,23.17-26.878,31.311-43.085l37.538-3.64c1.317-0.128,2.407-1.077,2.716-2.363l10.557-44.019
						c0.309-1.287-0.233-2.627-1.349-3.337l-31.803-20.271c0.096-18.137-2.818-35.87-8.362-52.599l23.985-29.137
						c0.84-1.021,0.941-2.463,0.25-3.59l-23.661-38.591c-0.691-1.128-2.022-1.692-3.313-1.407l-36.846,8.161
						c-12.394-12.529-26.877-23.17-43.085-31.311l-3.64-37.539c-0.128-1.316-1.076-2.407-2.363-2.716l-44.019-10.557
						c-1.286-0.309-2.626,0.233-3.337,1.349l-20.27,31.803c-18.137-0.096-35.871,2.818-52.601,8.362l-29.135-23.984
						c-1.021-0.841-2.464-0.941-3.591-0.25l-38.591,23.66c-1.127,0.692-1.693,2.022-1.407,3.314l8.159,36.845
						c-12.528,12.395-23.169,26.878-31.31,43.085l-37.539,3.64c-1.315,0.127-2.407,1.077-2.715,2.363l-10.558,44.017
						c-0.308,1.287,0.233,2.627,1.348,3.338l31.803,20.271c-0.096,18.136,2.818,35.87,8.361,52.599l-23.985,29.136
						c-0.841,1.021-0.94,2.463-0.25,3.592L759.773,1321.226z"/>
					<g>
						<path style="fill:#BDD0FB;" d="M911.077,1243.939c-9.789-1.324-18.86-5.731-26.056-12.757
							c-8.851-8.644-13.806-20.218-13.951-32.59c-0.306-25.53,20.221-46.553,45.76-46.864c25.573-0.259,46.564,20.231,46.867,45.767
							c0.149,12.373-4.531,24.062-13.174,32.91c-8.643,8.854-20.218,13.811-32.593,13.954
							C915.619,1244.384,913.327,1244.243,911.077,1243.939z M921.97,1164.281c-1.633-0.221-3.299-0.325-4.994-0.307
							c-18.785,0.229-33.884,15.692-33.661,34.477c0.109,9.096,3.751,17.615,10.263,23.969c6.514,6.36,15.11,9.792,24.211,9.695l0,0
							c9.099-0.109,17.615-3.755,23.971-10.263c6.36-6.514,9.801-15.111,9.693-24.214
							C951.25,1180.551,938.429,1166.507,921.97,1164.281z"/>
					</g>
					<path style="fill:#BDD0FB;" d="M902.786,1311.802c-3.84-0.519-7.683-1.239-11.53-2.157c-7.636-1.829-15.095-4.437-22.185-7.762
						c-0.318-0.152-0.635-0.303-0.953-0.455c-2.454-1.177-3.765-3.774-3.422-6.334c0.084-0.622,0.267-1.243,0.553-1.838
						c1.463-3.049,5.122-4.316,8.169-2.866c6.59,3.166,13.551,5.634,20.688,7.342l0.003,0c0.391,0.095,0.786,0.184,1.176,0.273
						c16.928,3.889,34.184,3.411,50.48-1.143c8.846-2.473,17.411-6.154,25.487-11.005c0.066-0.039,0.131-0.079,0.197-0.118
						c0.201-0.124,0.401-0.242,0.599-0.366c23.477-14.397,39.947-37.072,46.369-63.853c0.834-3.466,1.482-6.944,1.954-10.429
						c3.168-23.443-1.783-47.067-14.315-67.511c-14.397-23.478-37.073-39.941-63.851-46.363
						c-26.764-6.408-54.459-2.032-77.939,12.359c-23.477,14.396-39.947,37.072-46.369,63.853c-0.82,3.407-1.46,6.845-1.926,10.293
						c-2.02,14.958-0.746,30.185,3.786,44.593c0.278,0.888,0.347,1.791,0.227,2.656c-0.308,2.276-1.892,4.288-4.23,5.022
						c-3.229,1.005-6.663-0.775-7.68-4.008c-5.069-16.121-6.497-33.162-4.24-49.891c0.522-3.864,1.238-7.707,2.152-11.518
						c7.188-29.965,25.611-55.334,51.882-71.44c26.266-16.101,57.221-21.038,87.192-13.828
						c29.963,7.184,55.332,25.605,71.435,51.878c14.023,22.866,19.56,49.297,16.016,75.525c-0.527,3.893-1.253,7.79-2.181,11.665
						C1016.414,1282.384,960.675,1319.632,902.786,1311.802z"/>
				</g>
			</g>
		</g>
		<g>
			
				<linearGradient id="SVGID_00000113339052837604725610000003595162426434800823_" gradientUnits="userSpaceOnUse" x1="1857.7104" y1="1326.0016" x2="1823.1484" y2="2922.7332">
				<stop  offset="0" style="stop-color:#09005D"/>
				<stop  offset="1" style="stop-color:#1A0F91"/>
			</linearGradient>
			<path style="fill:url(#SVGID_00000113339052837604725610000003595162426434800823_);" d="M586.894,2821.089
				c0,24.903,20.395,45.279,45.322,45.279h2450.839c24.927,0,45.322-20.375,45.322-45.279l20.393-1408.43
				c0-24.903-29.34-73.52-83.111-69.867L670.43,1280.816c-31.276-0.809-61.517,11.229-83.665,33.305s-34.267,52.259-33.528,83.507
				L586.894,2821.089z"/>
			<path style="fill:#91B3FA;" d="M631.639,2777.65c0,23.582,19.295,42.878,42.878,42.878h2349.436
				c23.583,0,42.878-19.296,42.878-42.878l19.244-1278.585c-2.267-76.942-69.723-104.596-110.615-102.963l-2295.611-61.588
				c-21.973-0.589-43.218,7.876-58.78,23.399s-24.122,36.767-23.571,58.741L631.639,2777.65z"/>
			<g>
				
					<linearGradient id="SVGID_00000056428280273153057950000009438621860041910460_" gradientUnits="userSpaceOnUse" x1="3035.1575" y1="2112.1023" x2="3049.2432" y2="2112.1023">
					<stop  offset="0" style="stop-color:#DAE3FE"/>
					<stop  offset="1" style="stop-color:#E9EFFD"/>
				</linearGradient>
				<path style="fill:url(#SVGID_00000056428280273153057950000009438621860041910460_);" d="M3041.443,2170.233
					c-0.031,0-0.063,0-0.094,0c-3.472-0.05-6.244-2.904-6.191-6.379l1.521-103.691c0.05-3.437,2.854-6.191,6.279-6.191
					c0.031,0,0.063,0,0.094,0c3.472,0.05,6.244,2.904,6.191,6.379l-1.521,103.691
					C3047.671,2167.479,3044.867,2170.233,3041.443,2170.233z"/>
				
					<linearGradient id="SVGID_00000075878198388585195040000011161730136429581709_" gradientUnits="userSpaceOnUse" x1="2214.1482" y1="1658.4708" x2="3057.2864" y2="1658.4708">
					<stop  offset="0" style="stop-color:#DAE3FE"/>
					<stop  offset="1" style="stop-color:#E9EFFD"/>
				</linearGradient>
				<path style="fill:url(#SVGID_00000075878198388585195040000011161730136429581709_);" d="M3045.175,1916.136
					c-0.031,0-0.063,0-0.094,0c-3.472-0.05-6.244-2.91-6.191-6.379l5.83-397.14c-0.11-23.59-7.27-42.425-21.285-55.854
					c-26.161-25.063-67.695-23.784-69.445-23.702l-733.728-19.676c-3.469-0.088-6.206-2.979-6.112-6.448
					c0.091-3.468,2.757-6.423,6.451-6.109l733.292,19.676c4.563-0.27,48.785-1.035,78.236,27.183
					c16.568,15.875,25.032,37.746,25.157,64.992l-5.833,397.265C3051.403,1913.382,3048.6,1916.136,3045.175,1916.136z"/>
			</g>
			
				<linearGradient id="SVGID_00000013885286539438114680000010468637318753577143_" gradientUnits="userSpaceOnUse" x1="1871.6158" y1="2782.5134" x2="2080.5334" y2="1915.5026">
				<stop  offset="0" style="stop-color:#09005D"/>
				<stop  offset="1" style="stop-color:#1A0F91"/>
			</linearGradient>
			<path style="fill:url(#SVGID_00000013885286539438114680000010468637318753577143_);" d="M446.222,2983.285h2783.849
				c3.11,0,5.654-2.544,5.654-5.654v-112.442c0-3.11-2.544-5.654-5.654-5.654H446.222c-3.109,0-5.654,2.544-5.654,5.654v112.442
				C440.568,2980.741,443.113,2983.285,446.222,2983.285z"/>
			<path style="opacity:0.44;fill:#FFFFFF;" d="M2917.567,1854.096H740.442c-34.489,0-62.448-26.884-62.448-60.046v-289.614
				c0-33.509,28.524-60.534,63.37-60.039l2177.125,30.905c34.126,0.484,61.526,27.223,61.526,60.039v258.709
				C2980.015,1827.212,2952.056,1854.096,2917.567,1854.096z"/>
			<path style="opacity:0.44;fill:#FFFFFF;" d="M2963.266,2463.491H718.649c-9.25,0-16.749-7.499-16.749-16.749v-513.859
				c0-9.25,7.499-16.749,16.749-16.749h2244.617c9.25,0,16.749,7.499,16.749,16.749v513.859
				C2980.015,2455.993,2972.516,2463.491,2963.266,2463.491z"/>
			<path style="opacity:0.44;fill:#FFFFFF;" d="M2971.659,2766.988H710.257c-4.615,0-8.356-3.741-8.356-8.356v-218.49
				c0-4.615,3.741-8.356,8.356-8.356h2261.402c4.615,0,8.356,3.741,8.356,8.356v218.49
				C2980.015,2763.247,2976.274,2766.988,2971.659,2766.988z"/>
		</g>
		<g>
			
				<linearGradient id="SVGID_00000100353700616942355480000000669907743598034328_" gradientUnits="userSpaceOnUse" x1="2513.3997" y1="318.9575" x2="1999.7721" y2="1467.0684">
				<stop  offset="0" style="stop-color:#FF928E"/>
				<stop  offset="1" style="stop-color:#FE7062"/>
			</linearGradient>
			<path style="fill:url(#SVGID_00000100353700616942355480000000669907743598034328_);" d="M2641.544,1519.142
				c-3.408-52.672-35.217-99.333-82.896-121.978l-617.733-293.384c-39.56-18.788-85.473-18.788-125.033,0l-617.733,293.384
				c-47.679,22.645-79.489,69.305-82.896,121.978c-57.943,895.66,516.343,1222.002,704.6,1304.438
				c37.335,16.349,79.755,16.349,117.09,0C2125.201,2741.144,2699.487,2414.802,2641.544,1519.142z"/>
			<path style="opacity:0.67;fill:#FFFFFF;" d="M1691.548,1233.425c-5.542,0-10.855-3.121-13.389-8.457
				c-3.508-7.39-0.365-16.223,7.023-19.732l145.959-69.321c7.399-3.509,16.226-0.365,19.732,7.023
				c3.509,7.39,0.365,16.223-7.023,19.732l-145.96,69.321C1695.838,1232.965,1693.677,1233.425,1691.548,1233.425z"/>
			<path style="opacity:0.67;fill:#FFFFFF;" d="M1162.488,1716.856c-7.948,0-14.522-6.305-14.792-14.311
				c-1.964-58.443-0.934-119.376,3.06-181.107c2.568-39.695,26.575-74.999,62.654-92.136l415.556-197.365
				c7.39-3.514,16.22-0.364,19.732,7.023c3.509,7.39,0.365,16.223-7.023,19.732l-415.556,197.365
				c-26.381,12.53-43.935,38.315-45.809,67.296c-3.931,60.765-4.946,120.721-3.014,178.198c0.275,8.174-6.129,15.023-14.303,15.298
				C1162.824,1716.853,1162.656,1716.856,1162.488,1716.856z"/>
			
				<linearGradient id="SVGID_00000029037805908887645330000018096902169093689745_" gradientUnits="userSpaceOnUse" x1="1609.0297" y1="1074.8262" x2="2149.4756" y2="2401.3779">
				<stop  offset="0" style="stop-color:#4F52FF"/>
				<stop  offset="1" style="stop-color:#4042E2"/>
			</linearGradient>
			<path style="fill:url(#SVGID_00000029037805908887645330000018096902169093689745_);" d="M2492.164,1554.1
				c-0.683-13.353-8.632-25.272-20.709-31.009l-577.475-274.265c-9.86-4.683-21.303-4.683-31.163,0l-577.473,274.265
				c-12.078,5.736-20.027,17.656-20.709,31.009c-17.078,334.109,60.095,612.879,229.537,828.943
				c129.183,164.729,280.303,253.007,368.857,294.192c9.756,4.537,20.983,4.538,30.74,0
				c88.553-41.184,239.674-129.463,368.857-294.192C2432.068,2166.979,2509.24,1888.207,2492.164,1554.1z"/>
			<g>
				
					<linearGradient id="SVGID_00000096742590944350130640000015160424282010298755_" gradientUnits="userSpaceOnUse" x1="2357.9324" y1="-157.4703" x2="2242.1323" y2="315.8011">
					<stop  offset="0" style="stop-color:#FF928E"/>
					<stop  offset="1" style="stop-color:#FE7062"/>
				</linearGradient>
				<path style="fill:url(#SVGID_00000096742590944350130640000015160424282010298755_);" d="M1707.656,1913.067h-57.554V1683.71
					c0-90.084,67.436-166.212,156.863-177.08l117.675-14.3c50.648-6.156,101.607,9.718,139.803,43.552
					c38.195,33.834,60.1,82.502,60.1,133.528v200.231h-57.554V1669.41c0-34.563-14.838-67.529-40.71-90.446
					c-25.872-22.918-60.392-33.672-94.696-29.5l-117.677,14.301c-60.573,7.361-106.252,58.927-106.252,119.946V1913.067z"/>
				
					<linearGradient id="SVGID_00000168096678612262261280000015475774878041858708_" gradientUnits="userSpaceOnUse" x1="2431.1697" y1="-139.5504" x2="2315.3691" y2="333.7224">
					<stop  offset="0" style="stop-color:#FF928E"/>
					<stop  offset="1" style="stop-color:#FE7062"/>
				</linearGradient>
				<path style="fill:url(#SVGID_00000168096678612262261280000015475774878041858708_);" d="M1633.088,1861.574l504.514-27.951
					c20.491-1.135,37.729,15.174,37.729,35.697v399.682c0,19.745-16.007,35.751-35.752,35.751h-492.392
					c-19.292,0-35.104-15.305-35.733-34.586l-12.121-371.731C1598.7,1879.017,1613.69,1862.648,1633.088,1861.574z"/>
				
					<linearGradient id="SVGID_00000004524200885150877250000018115984239608261791_" gradientUnits="userSpaceOnUse" x1="1885.9985" y1="2105.9771" x2="2198.1575" y2="1224.8827">
					<stop  offset="0" style="stop-color:#E1473D"/>
					<stop  offset="1" style="stop-color:#E9605A"/>
				</linearGradient>
				<path style="fill:url(#SVGID_00000004524200885150877250000018115984239608261791_);" d="M1969.572,2190.256l-30.536-87.791
					c-3.671-10.554-1.171-22.356,6.679-30.31c15.649-15.856,24.973-37.966,23.868-62.249c-1.948-42.824-36.932-77.546-79.768-79.191
					c-47.406-1.821-86.411,36.07-86.411,83.071c0,26.074,12.01,49.335,30.797,64.572c9.743,7.903,13.748,20.892,9.626,32.741
					l-27.532,79.157c-6.696,19.251,7.598,39.356,27.98,39.356h97.317C1961.974,2229.612,1976.268,2209.507,1969.572,2190.256z"/>
			</g>
		</g>
		<g>
			
				<linearGradient id="SVGID_00000171716375600190649480000001229325781256222617_" gradientUnits="userSpaceOnUse" x1="18273.2656" y1="1282.3586" x2="17935.3613" y2="1475.2294" gradientTransform="matrix(-1 0 0 1 20496.2813 0)">
				<stop  offset="0" style="stop-color:#FEBBBA"/>
				<stop  offset="1" style="stop-color:#FF928E"/>
			</linearGradient>
			<path style="fill:url(#SVGID_00000171716375600190649480000001229325781256222617_);" d="M2274.388,1596.783
				c0.399-0.153,214.728-375.494,243.69-410.816c4.873-5.941,12.413-8.966,20.044-8.057l59.823,7.129l70.279,152.039
				l-117.083-68.188c11.585,80.125-138.823,199.202-190.407,242.651c-5.235,4.41-5.664,12.307-0.937,17.256l20.594,21.558
				c-33.81,34.271-72.824,56.276-116.857,66.454L2274.388,1596.783z"/>
			
				<linearGradient id="SVGID_00000051345031794483708890000009774790907221110206_" gradientUnits="userSpaceOnUse" x1="2250.3076" y1="1592.1764" x2="2386.8677" y2="1592.1764">
				<stop  offset="0" style="stop-color:#09005D"/>
				<stop  offset="1" style="stop-color:#1A0F91"/>
			</linearGradient>
			<path style="fill:url(#SVGID_00000051345031794483708890000009774790907221110206_);" d="M2368.478,1538.722
				c0,0,13.144,4.246,17.594,15.952c2.129,5.601-0.166,11.944-5.037,15.434c-21.643,15.506-93.031,65.565-125.975,75.369
				c-2.7,0.804-5.27-1.64-4.662-4.391c1.691-7.653,7.159-22.936,24.777-45.308l-1.581,3.197c-2,4.046,2.406,8.259,6.336,6.04
				C2301.964,1592.575,2346.844,1565.351,2368.478,1538.722z"/>
			
				<linearGradient id="SVGID_00000064319555251700875300000015370941645172005264_" gradientUnits="userSpaceOnUse" x1="18240.5762" y1="1330.459" x2="19396.7168" y2="606.6979" gradientTransform="matrix(-1 0 0 1 20496.2813 0)">
				<stop  offset="0" style="stop-color:#FEBBBA"/>
				<stop  offset="1" style="stop-color:#FF928E"/>
			</linearGradient>
			<path style="fill:url(#SVGID_00000064319555251700875300000015370941645172005264_);" d="M2357.871,1688.904
				c0.36-0.231,32.516-77.706,32.875-77.936c29.483-179.509,101.418-333.244,122.632-373.697
				c3.57-6.804,10.341-11.292,17.998-11.946l60.028-5.125l99.594,134.67l-128.459-43.081
				c27.561,76.123-95.637,223.174-137.361,276.164c-4.234,5.378-3.057,13.199,2.575,17.089l24.531,16.944
				c-26.174,40.403-59.928,69.849-100.99,88.727L2357.871,1688.904z"/>
			
				<linearGradient id="SVGID_00000031920786085919234470000010978754802412747653_" gradientUnits="userSpaceOnUse" x1="2343.342" y1="1676.9714" x2="2460.645" y2="1676.9714">
				<stop  offset="0" style="stop-color:#09005D"/>
				<stop  offset="1" style="stop-color:#1A0F91"/>
			</linearGradient>
			<path style="fill:url(#SVGID_00000031920786085919234470000010978754802412747653_);" d="M2438.263,1613.002
				c0,0,13.731,1.498,20.458,12.061c3.218,5.054,2.254,11.731-1.809,16.134c-18.057,19.564-77.837,83.035-108.115,99.304
				c-2.482,1.334-5.492-0.539-5.454-3.356c0.107-7.837,2.369-23.91,15.095-49.385l-0.901,3.451c-1.14,4.367,4.027,7.601,7.427,4.633
				C2384.025,1679.203,2422.467,1643.459,2438.263,1613.002z"/>
			<g>
				
					<linearGradient id="SVGID_00000080908894384942624240000014842010802017942912_" gradientUnits="userSpaceOnUse" x1="10125.0547" y1="1040.1901" x2="9847.1416" y2="1344.7523" gradientTransform="matrix(-1 0 0 1 12664.5801 0)">
					<stop  offset="0" style="stop-color:#4F52FF"/>
					<stop  offset="1" style="stop-color:#4042E2"/>
				</linearGradient>
				<path style="fill:url(#SVGID_00000080908894384942624240000014842010802017942912_);" d="M2872.386,1191.837
					c0,0,54.302,80.768,58.759,117.612c4.456,36.843-15.016,49.584-71.852,54.283c-169.136,13.982-252.514-36.709-252.514-36.709
					c-11.57-73.771-19.803-92.539-116.434-132.649c0,0,122.221,9.703,146.819,0.158
					C2661.761,1184.985,2872.386,1191.837,2872.386,1191.837z"/>
			</g>
			<g>
				
					<linearGradient id="SVGID_00000018943173965384979410000006702156648192891570_" gradientUnits="userSpaceOnUse" x1="2383.5234" y1="1025.7327" x2="1995.8411" y2="708.538" gradientTransform="matrix(1 0 0 1 548.7078 0)">
					<stop  offset="0" style="stop-color:#09005D"/>
					<stop  offset="1" style="stop-color:#1A0F91"/>
				</linearGradient>
				<path style="fill:url(#SVGID_00000018943173965384979410000006702156648192891570_);" d="M2612.398,768.38
					c0,0-28.703-29.613,12.811-53.412c41.513-23.798,73.516,6.231,110.694,47.612c30.435,33.875,87.282,36.202,128.313,47.919
					c51.671,14.757,89.077,54.303,95.002,109.716c4.846,45.328-33.995,77.136-72.659,91.15
					c-118.324,42.885-146.305,57.231-183.432-13.533S2612.398,768.38,2612.398,768.38z"/>
				<path style="fill:#BDD0FB;" d="M2916.219,972.185c7.207-5.031,13.829-11.688,17.822-18.166c5.988-9.717,7.843-27.39,7.582-40.69
					c-1.274-65.03-63.628-88.415-110.418-100.346c-13.956-3.56-28.689-6.762-43.792-9.518c-0.383-0.07-0.756,0.183-0.824,0.568
					c-0.071,0.385,0.185,0.755,0.568,0.824c15.072,2.751,29.774,5.946,43.696,9.497c46.344,11.819,108.099,34.938,109.354,99.002
					c0.255,13.1-1.546,30.466-7.374,39.921c-5.374,8.724-15.651,17.791-25.574,22.559c-0.35,0.165-0.501,0.589-0.331,0.944
					c0.169,0.353,0.592,0.5,0.944,0.331C2910.665,975.768,2913.485,974.093,2916.219,972.185z"/>
				
					<linearGradient id="SVGID_00000134968943229815623550000014225373003583730594_" gradientUnits="userSpaceOnUse" x1="3299.5637" y1="590.4084" x2="3017.614" y2="827.0453">
					<stop  offset="0" style="stop-color:#FF928E"/>
					<stop  offset="1" style="stop-color:#FE7062"/>
				</linearGradient>
				<path style="fill:url(#SVGID_00000134968943229815623550000014225373003583730594_);" d="M2725.529,1181.145
					c0,0-63.236-60.213-94.363-100.095c-16.826-21.558-22.11-49.939-14.329-76.156c14.211-47.879,39.467-97.468,41.771-105.186
					c3.531-11.83,74.434-11.338,74.434-11.338s139.525,90.553,194.345,243.944l-61.566,19.167c0,0-36.43-61.118-72.425-99.976
					c0,0,62.284,82.279,64.478,115.963L2725.529,1181.145z"/>
				
					<linearGradient id="SVGID_00000044879702964756188340000012084354274197429159_" gradientUnits="userSpaceOnUse" x1="-9284.9766" y1="1171.1859" x2="-8948.374" y2="1171.1859" gradientTransform="matrix(1 0 0 1 12099.8174 0)">
					<stop  offset="0" style="stop-color:#FEBBBA"/>
					<stop  offset="1" style="stop-color:#FF928E"/>
				</linearGradient>
				<path style="fill:url(#SVGID_00000044879702964756188340000012084354274197429159_);" d="M2605.045,1204.906l47.515-51.697
					l54.875,14.776c0,0,63.976,9.912,100.592,0c36.616-9.911,36.616-9.911,36.616-9.911l82.744-25.76l12.995,36.727
					c3.3,9.325-0.016,19.677-8.079,25.406c-7.159,5.087-15.55,10.677-20.898,13.017c-10.897,4.767-251.015,1.507-251.015,1.507
					L2605.045,1204.906z"/>
				
					<linearGradient id="SVGID_00000150080238676308320020000006692879257010773168_" gradientUnits="userSpaceOnUse" x1="-11124.5107" y1="107.9508" x2="-11108.0557" y2="-12.4262" gradientTransform="matrix(0.9974 -0.0717 0.0717 0.9974 13765.6875 105.0094)">
					<stop  offset="0" style="stop-color:#FEBBBA"/>
					<stop  offset="1" style="stop-color:#FF928E"/>
				</linearGradient>
				<path style="fill:url(#SVGID_00000150080238676308320020000006692879257010773168_);" d="M2684.312,803.119l47.655,88.616
					c-3.146,19.344-51.867,19.889-59.393,8.339c-0.766-1.175-1.204-2.535-1.495-3.908l-28.507-59.21
					c-1.224-5.774,14.604-25.228,19.814-28.001l18.941-10.083C2688.62,794.989,2658.186,794.684,2684.312,803.119z"/>
				<g>
					
						<linearGradient id="SVGID_00000003067972982276028060000006738391357387940769_" gradientUnits="userSpaceOnUse" x1="-9106.4004" y1="-4400.4434" x2="-8951.4717" y2="-4676.1646" gradientTransform="matrix(0.5458 -0.8379 0.8379 0.5458 11346.7031 -4320.769)">
						<stop  offset="0" style="stop-color:#FEBBBA"/>
						<stop  offset="1" style="stop-color:#FF928E"/>
					</linearGradient>
					<path style="fill:url(#SVGID_00000003067972982276028060000006738391357387940769_);" d="M2587.867,782.322
						c0,0-5.379,29.939,18.152,68.005c23.531,38.066,46.964,36.347,58.869,22.772c11.905-13.575,26.165-36.185,19.677-74.152
						C2678.076,760.981,2595.995,744.143,2587.867,782.322z"/>
					
						<linearGradient id="SVGID_00000183220081738595426500000004802619025415035526_" gradientUnits="userSpaceOnUse" x1="2390.0933" y1="1017.7034" x2="2002.4117" y2="700.5094" gradientTransform="matrix(1 0 0 1 548.7078 0)">
						<stop  offset="0" style="stop-color:#09005D"/>
						<stop  offset="1" style="stop-color:#1A0F91"/>
					</linearGradient>
					<path style="fill:url(#SVGID_00000183220081738595426500000004802619025415035526_);" d="M2591.326,738.293
						c0,0-19.719,29.658-15.685,42.291c4.033,12.634,47.088-10.898,57.44-17.424l94.657,72.809c0,0-50.695-97.75-76.049-113.92
						C2626.336,705.878,2591.326,738.293,2591.326,738.293z"/>
					<path style="fill:#BDD0FB;" d="M2580.502,780.77c0.199-0.184,0.283-0.474,0.191-0.748c-0.175-0.52-4.152-12.861,7.906-23.982
						c0.288-0.265,0.306-0.713,0.041-1c-0.265-0.288-0.713-0.306-1-0.041c-12.757,11.765-8.333,25.343-8.287,25.479
						c0.125,0.37,0.527,0.567,0.896,0.441C2580.346,780.886,2580.43,780.835,2580.502,780.77z"/>
					
						<linearGradient id="SVGID_00000092426142068312309350000002764740380378555044_" gradientUnits="userSpaceOnUse" x1="-9069.8701" y1="-4376.4639" x2="-8914.9424" y2="-4652.1836" gradientTransform="matrix(0.5458 -0.8379 0.8379 0.5458 11346.7031 -4320.769)">
						<stop  offset="0" style="stop-color:#FEBBBA"/>
						<stop  offset="1" style="stop-color:#FF928E"/>
					</linearGradient>
					<path style="fill:url(#SVGID_00000092426142068312309350000002764740380378555044_);" d="M2671.328,801.738
						c0,0-19.738-25.613-1.771-30.929c17.967-5.316,17.296,25.097,16.125,36.411L2671.328,801.738z"/>
				</g>
			</g>
			<g>
				
					<linearGradient id="SVGID_00000175317559357872052660000012861858650665855117_" gradientUnits="userSpaceOnUse" x1="-9307.8252" y1="763.4408" x2="-9483.9121" y2="811.7016" gradientTransform="matrix(0.9988 -0.0494 0.0494 0.9988 12058.3486 -55.0328)">
					<stop  offset="0" style="stop-color:#09005D"/>
					<stop  offset="1" style="stop-color:#1A0F91"/>
				</linearGradient>
				<path style="fill:url(#SVGID_00000175317559357872052660000012861858650665855117_);" d="M2762.327,1225.367
					c-0.167,0.008-0.334,0.013-0.503,0.011l-218.55-0.239c-5.403-0.004-9.778-4.389-9.772-9.792
					c0.005-5.405,4.406-9.869,9.794-9.772l218.55,0.238c5.403,0.005,9.778,4.389,9.772,9.792
					C2771.612,1220.841,2767.496,1225.111,2762.327,1225.367z"/>
				
					<linearGradient id="SVGID_00000034090251455712157760000017998268116832965050_" gradientUnits="userSpaceOnUse" x1="1793.6808" y1="1138.9546" x2="3377.3982" y2="1005.7092" gradientTransform="matrix(1 0 0 1 548.7078 0)">
					<stop  offset="0" style="stop-color:#09005D"/>
					<stop  offset="1" style="stop-color:#1A0F91"/>
				</linearGradient>
				<path style="fill:url(#SVGID_00000034090251455712157760000017998268116832965050_);" d="M2346.807,1026.937h182.01
					c13.427,0,25.648,7.748,31.375,19.893l84.143,178.421h-226.19c-8.653,0-16.427-5.287-19.607-13.334l-65.249-165.102
					C2329.519,1037.275,2336.549,1026.937,2346.807,1026.937z"/>
				<path style="fill:#91B3FA;" d="M2475.035,1118.418c3.944,12.254,1.031,24.155-6.509,26.581
					c-7.539,2.427-16.847-5.54-20.791-17.795c-3.944-12.254-1.031-24.155,6.508-26.581
					C2461.782,1098.198,2471.091,1106.164,2475.035,1118.418z"/>
			</g>
		</g>
		<g>
			
				<linearGradient id="SVGID_00000122685462375209404580000004770518749320003718_" gradientUnits="userSpaceOnUse" x1="-4229.2021" y1="3191.5469" x2="-4063.6426" y2="3191.5469" gradientTransform="matrix(1 0 0 1 5088.2163 0)">
				<stop  offset="0" style="stop-color:#4F52FF"/>
				<stop  offset="1" style="stop-color:#4042E2"/>
			</linearGradient>
			<path style="fill:url(#SVGID_00000122685462375209404580000004770518749320003718_);" d="M1019.898,3183.539
				c-28.362,2.452-77.586,6.434-116.392,8.142c-23.328,1.027-36.757-1.258-44.492-4.354c0.013,0.872,0.037,1.696,0.072,2.461
				c0.183,4.083,3.502,7.351,7.626,7.581c73.326,4.093,131.642,1.416,152.403,0.153c4.293-0.262,6.851-4.927,4.656-8.586
				C1022.673,3187.105,1021.343,3185.312,1019.898,3183.539z"/>
			
				<linearGradient id="SVGID_00000118385298068336720820000009497652008447095456_" gradientUnits="userSpaceOnUse" x1="-4229.2114" y1="3159.0994" x2="-4068.3179" y2="3159.0994" gradientTransform="matrix(1 0 0 1 5088.2163 0)">
				<stop  offset="0" style="stop-color:#09005D"/>
				<stop  offset="1" style="stop-color:#1A0F91"/>
			</linearGradient>
			<path style="fill:url(#SVGID_00000118385298068336720820000009497652008447095456_);" d="M903.506,3191.681
				c38.806-1.708,88.03-5.69,116.392-8.142c-27.885-34.212-116.392-57.271-116.392-57.271h-24.997
				c-17.193,24.783-19.683,48.379-19.494,61.058C866.749,3190.424,880.178,3192.708,903.506,3191.681z"/>
			
				<linearGradient id="SVGID_00000016035118981884035700000008308196804564297391_" gradientUnits="userSpaceOnUse" x1="-4213.9175" y1="3113.7981" x2="-4167.2827" y2="3113.7981" gradientTransform="matrix(1 0 0 1 5088.2163 0)">
				<stop  offset="0" style="stop-color:#FEBBBA"/>
				<stop  offset="1" style="stop-color:#FF928E"/>
			</linearGradient>
			<path style="fill:url(#SVGID_00000016035118981884035700000008308196804564297391_);" d="M874.299,3085.459l2.34,46.291
				c0.253,5.013,4.006,9.225,9.026,9.943c4.995,0.714,11.685,0.806,18.778-1.556c4.364-1.452,7.604-5.129,8.409-9.615l8.083-45.063
				H874.299z"/>
			<g>
				
					<linearGradient id="SVGID_00000154422953264940351830000000502871597201165224_" gradientUnits="userSpaceOnUse" x1="-4524.7036" y1="3232.6003" x2="-4461.2588" y2="3232.6003" gradientTransform="matrix(1 0 0 1 5088.2163 0)">
					<stop  offset="0" style="stop-color:#4F52FF"/>
					<stop  offset="1" style="stop-color:#4042E2"/>
				</linearGradient>
				<path style="fill:url(#SVGID_00000154422953264940351830000000502871597201165224_);" d="M584.172,3236.94
					c-12.3-2.217-17.865-10.475-20.198-19.303c-0.016,0.08-0.031,0.159-0.046,0.238c-1.81,9.313,2.385,18.964,10.772,23.554
					c10.137,5.548,21.221,6.493,29.825,6.035c9.232-0.492,17.705-5.429,22.363-13.331l0.07-0.119
					C617.691,3239.939,604.684,3240.637,584.172,3236.94z"/>
				
					<linearGradient id="SVGID_00000128474994829245815600000002912684091089080236_" gradientUnits="userSpaceOnUse" x1="-4524.2422" y1="3169.4651" x2="-4431.1172" y2="3169.4651" gradientTransform="matrix(1 0 0 1 5088.2163 0)">
					<stop  offset="0" style="stop-color:#09005D"/>
					<stop  offset="1" style="stop-color:#1A0F91"/>
				</linearGradient>
				<path style="fill:url(#SVGID_00000128474994829245815600000002912684091089080236_);" d="M642.162,3099.722h-20.614
					c-31.401-0.83-51.119,84.767-57.574,117.914c2.333,8.828,7.898,17.086,20.198,19.303c20.512,3.697,33.519,3,42.785-2.926
					c16.964-28.852,25.375-71.107,29.417-95.768C660.973,3110.198,642.162,3099.722,642.162,3099.722z"/>
			</g>
			
				<linearGradient id="SVGID_00000017494533424646531070000015460277089853689269_" gradientUnits="userSpaceOnUse" x1="-4475.8374" y1="3089.48" x2="-4420.104" y2="3089.48" gradientTransform="matrix(1 0 0 1 5088.2163 0)">
				<stop  offset="0" style="stop-color:#FEBBBA"/>
				<stop  offset="1" style="stop-color:#FF928E"/>
			</linearGradient>
			<path style="fill:url(#SVGID_00000017494533424646531070000015460277089853689269_);" d="M624.197,3056.755l-11.447,45.529
				c-1.404,5.583,1.268,11.357,6.429,14.005c6.404,3.287,15.42,6.74,23.706,5.74c3.897-0.47,7.134-3.215,8.421-6.884l16.806-47.901
				L624.197,3056.755z"/>
			
				<linearGradient id="SVGID_00000068650728199872477900000005539756641640890030_" gradientUnits="userSpaceOnUse" x1="-4025.0356" y1="2488.0488" x2="-4500.8701" y2="3267.5112" gradientTransform="matrix(1 0 0 1 5088.2163 0)">
				<stop  offset="0" style="stop-color:#4F52FF"/>
				<stop  offset="1" style="stop-color:#4042E2"/>
			</linearGradient>
			<path style="fill:url(#SVGID_00000068650728199872477900000005539756641640890030_);" d="M1026.881,2457.112
				c0,0-102.297,639.445-100.612,642.96c0,0-28.254,12.842-59.055,1.636c0,0,9.251-341.829,30.927-472.895
				c0,0-174.587,305.529-230.029,457.767c0,0-28.917-3.448-52.853-19.201c0,0,187.981-549.937,238.132-623.185L1026.881,2457.112z"
				/>
			
				<linearGradient id="SVGID_00000049181735877706509620000009942933138065043645_" gradientUnits="userSpaceOnUse" x1="1373.8783" y1="2082.356" x2="1076.8243" y2="2419.689">
				<stop  offset="0" style="stop-color:#4F52FF"/>
				<stop  offset="1" style="stop-color:#4042E2"/>
			</linearGradient>
			<path style="fill:url(#SVGID_00000049181735877706509620000009942933138065043645_);" d="M902.217,2626.574
				c1.372,0,2.715-0.683,3.492-1.927l37.298-59.567l26.394-5.309c2.232-0.449,3.672-2.617,3.22-4.841
				c-0.452-2.232-2.609-3.639-4.841-3.22l-28.128,5.66c-1.109,0.222-2.081,0.894-2.677,1.847l-38.233,61.063
				c-1.207,1.927-0.618,4.464,1.305,5.667C900.724,2626.374,901.478,2626.574,902.217,2626.574z"/>
			
				<linearGradient id="SVGID_00000168088373286390498160000007110707524648337581_" gradientUnits="userSpaceOnUse" x1="-3709.2527" y1="1915.5194" x2="-3929.9871" y2="2202.689" gradientTransform="matrix(1 0 0 1 5088.2163 0)">
				<stop  offset="0" style="stop-color:#FEBBBA"/>
				<stop  offset="1" style="stop-color:#FF928E"/>
			</linearGradient>
			<path style="fill:url(#SVGID_00000168088373286390498160000007110707524648337581_);" d="M1496.318,1830.956
				c0,0-69.028,15.224-111.013,34.609c-8.339,3.85-14.99,10.582-18.778,18.879c-12.557,27.506-50.125,96.481-122.983,129.397
				c10.492,13.926,27.386,42.894,34.746,91.582c43.759-32.569,81.536-86.961,99.673-176.165c0,0,13.811,7.508,31.04-0.859
				c9.103-4.421,19.613-10.692,27.503-15.623c7.861-4.914,13.716-12.552,15.99-21.473c3.003-11.78,1.234-22.139,1.234-33.251
				l35.482-10.993C1489.212,1847.059,1499.879,1843.033,1496.318,1830.956z"/>
			
				<linearGradient id="SVGID_00000059270899279375603380000002707761521763054754_" gradientUnits="userSpaceOnUse" x1="1361.9667" y1="1986.2999" x2="730.9034" y2="2348.8257">
				<stop  offset="0" style="stop-color:#E1473D"/>
				<stop  offset="1" style="stop-color:#E9605A"/>
			</linearGradient>
			<path style="fill:url(#SVGID_00000059270899279375603380000002707761521763054754_);" d="M1278.291,2105.424
				c-7.36-48.688-24.254-77.656-34.746-91.582c-45.26,20.448-104.135,26.986-179.106,1.007c-6.911-2.395-14.12-3.797-21.429-4.226
				c-39.911-2.34-171.431-6.61-280.26,29.345c-22.904,7.567-41.455,24.499-51.015,46.438
				c-29.439,67.559-77.102,221.417,55.214,299.092c10.166-25.238,21.899-45.525,31.932-60.431
				c-21.308-35.941-27.619-85.031,10.193-148.956c27.572,74.45,40.507,183.081,43.21,231.156c0.89,15.828-1.887,31.626-8.097,46.24
				l-0.677,1.594c-1.329,3.127,0.5,6.721,3.843,7.472c74.488,16.732,151.962,12.186,175.108,10.274
				c4.132-0.341,7.565-3.298,8.513-7.292c36.221-152.623,36.304-256.733,27.436-322.546
				C1092.292,2150.586,1195.903,2166.743,1278.291,2105.424z"/>
			
				<linearGradient id="SVGID_00000042695554184909763370000007319365125616777362_" gradientUnits="userSpaceOnUse" x1="1028.0035" y1="2097.1978" x2="1062.6671" y2="2097.1978">
				<stop  offset="0" style="stop-color:#FF928E"/>
				<stop  offset="1" style="stop-color:#FE7062"/>
			</linearGradient>
			<path style="fill:url(#SVGID_00000042695554184909763370000007319365125616777362_);" d="M1058.551,2148.201
				c0.181,0,0.362-0.011,0.55-0.034c2.247-0.298,3.831-2.364,3.529-4.615c-8.732-66.01-26.303-94.289-27.05-95.458
				c-1.222-1.912-3.771-2.466-5.663-1.271c-1.915,1.214-2.489,3.752-1.282,5.671c0.173,0.271,17.382,28.188,25.851,92.136
				C1054.757,2146.697,1056.522,2148.201,1058.551,2148.201z"/>
			
				<linearGradient id="SVGID_00000150063970491976793770000002145628110998315953_" gradientUnits="userSpaceOnUse" x1="-4201.2651" y1="2101.1216" x2="-4177.1162" y2="1974.3407" gradientTransform="matrix(1 0 0 1 5088.2163 0)">
				<stop  offset="0" style="stop-color:#FEBBBA"/>
				<stop  offset="1" style="stop-color:#FF928E"/>
			</linearGradient>
			<path style="fill:url(#SVGID_00000150063970491976793770000002145628110998315953_);" d="M874.731,1921.714
				c0,0-7.536,79.675-14.17,103.243c-1.007,3.576,0.547,7.346,3.795,9.202c11.261,6.434,38.269,16.929,75.212-1.177
				c5.985-2.933,9.583-9.172,9.304-15.774l-3.255-76.992L874.731,1921.714z"/>
			
				<linearGradient id="SVGID_00000057834105151073260430000001397446757637075345_" gradientUnits="userSpaceOnUse" x1="1897.1674" y1="1292.6985" x2="1588.3496" y2="1668.65">
				<stop  offset="0" style="stop-color:#FEBBBA"/>
				<stop  offset="1" style="stop-color:#FF928E"/>
			</linearGradient>
			<path style="fill:url(#SVGID_00000057834105151073260430000001397446757637075345_);" d="M1396.374,1922.121
				c1.191,0,2.375-0.516,3.19-1.516c9.917-12.198,26.801-31.552,32.675-34.87c5.173-2.922,8.122-6.21,9.027-10.048
				c0.769-3.254-0.038-6.674-2.391-10.169c-0.927-1.372-2.534-2.051-4.215-1.731l-30.134,6.037c-0.694,0.14-1.335,0.452-1.87,0.912
				l-16.017,13.751c-1.727,1.478-1.923,4.072-0.445,5.795c1.486,1.727,4.08,1.919,5.799,0.441l15.203-13.05l26.024-5.215
				c0.188,0.732,0.09,1.146,0.045,1.339c-0.332,1.425-2.134,3.122-5.068,4.781c-9.102,5.139-32.389,33.61-35.013,36.838
				c-1.433,1.765-1.161,4.351,0.596,5.784C1394.541,1921.819,1395.461,1922.121,1396.374,1922.121z"/>
			
				<linearGradient id="SVGID_00000109021172199664009500000009327553496967715227_" gradientUnits="userSpaceOnUse" x1="-4098.3809" y1="2238.6709" x2="-4177.4443" y2="2357.2659" gradientTransform="matrix(1 0 0 1 5088.2163 0)">
				<stop  offset="0" style="stop-color:#FEBBBA"/>
				<stop  offset="1" style="stop-color:#FF928E"/>
			</linearGradient>
			<path style="fill:url(#SVGID_00000109021172199664009500000009327553496967715227_);" d="M881.847,2439.912l108.765-2.367
				c0,0-94.846-26.81-100.731-19.508c0,0-58.785-38.63-91.001-92.969c-10.033,14.905-21.766,35.192-31.932,60.431
				C795.828,2402.453,833.757,2431.906,881.847,2439.912z"/>
			
				<linearGradient id="SVGID_00000064346204917287205660000012888807199798894735_" gradientUnits="userSpaceOnUse" x1="784.2195" y1="2257.8262" x2="706.7474" y2="2374.0342" gradientTransform="matrix(-1 0 0 1 1616.3335 0)">
				<stop  offset="0" style="stop-color:#FEBBBA"/>
				<stop  offset="1" style="stop-color:#FF928E"/>
			</linearGradient>
			<path style="fill:url(#SVGID_00000064346204917287205660000012888807199798894735_);" d="M878.781,2421.079
				c0,0-2.243,43.336,54.642,37.042c30.915-3.42,80.827-32.245,80.827-32.245S884.158,2425.531,878.781,2421.079z"/>
			<g>
				
					<linearGradient id="SVGID_00000094586281999022133540000018100169972072940430_" gradientUnits="userSpaceOnUse" x1="1730.1133" y1="2504.4917" x2="1512.2466" y2="2564.2034" gradientTransform="matrix(-0.9988 -0.0494 -0.0494 0.9988 2706.9492 -55.0328)">
					<stop  offset="0" style="stop-color:#09005D"/>
					<stop  offset="1" style="stop-color:#1A0F91"/>
				</linearGradient>
				<path style="fill:url(#SVGID_00000094586281999022133540000018100169972072940430_);" d="M901.056,2432.704
					c0.207,0.01,0.414,0.016,0.622,0.014l270.428-0.292c6.685-0.005,12.098-5.373,12.092-11.988
					c-0.007-6.617-5.451-12.083-12.118-11.964l-270.428,0.292c-6.685,0.005-12.099,5.373-12.092,11.988
					C889.567,2427.163,894.66,2432.391,901.056,2432.704z"/>
				
					<linearGradient id="SVGID_00000109733753618954708040000004623183084137875613_" gradientUnits="userSpaceOnUse" x1="1514.8425" y1="2221.9619" x2="1361.1652" y2="2384.3894" gradientTransform="matrix(-1 0 0 1 2665.4802 0)">
					<stop  offset="0" style="stop-color:#09005D"/>
					<stop  offset="1" style="stop-color:#1A0F91"/>
				</linearGradient>
				<path style="fill:url(#SVGID_00000109733753618954708040000004623183084137875613_);" d="M1415.209,2189.766h-225.215
					c-16.614,0-31.736,9.487-38.823,24.354l-104.116,218.441h279.881c10.707,0,20.326-6.473,24.261-16.325l80.738-202.134
					C1436.6,2202.422,1427.901,2189.766,1415.209,2189.766z"/>
				
					<linearGradient id="SVGID_00000080171139444831590100000012572651395519408063_" gradientUnits="userSpaceOnUse" x1="1421.656" y1="2262.5591" x2="1352.1891" y2="2367.1682" gradientTransform="matrix(-1 0 0 1 2665.4802 0)">
					<stop  offset="0" style="stop-color:#4F52FF"/>
					<stop  offset="1" style="stop-color:#4042E2"/>
				</linearGradient>
				<path style="fill:url(#SVGID_00000080171139444831590100000012572651395519408063_);" d="M1256.543,2301.767
					c-4.881,15.002-1.275,29.573,8.053,32.544c9.328,2.97,20.846-6.783,25.727-21.786c4.88-15.002,1.275-29.573-8.053-32.543
					C1272.942,2277.01,1261.423,2286.764,1256.543,2301.767z"/>
			</g>
			<g>
				
					<linearGradient id="SVGID_00000103956088702233090450000016428528659740114355_" gradientUnits="userSpaceOnUse" x1="1946.413" y1="2191.8376" x2="1800.9152" y2="2384.3193" gradientTransform="matrix(0.8485 -0.5291 0.5291 0.8485 -1871.2408 996.9384)">
					<stop  offset="0" style="stop-color:#FEBBBA"/>
					<stop  offset="1" style="stop-color:#FF928E"/>
				</linearGradient>
				<path style="fill:url(#SVGID_00000103956088702233090450000016428528659740114355_);" d="M963.775,1811.045
					c1.015,1.628,27.819,125.583,27.819,125.583l-71.102,13.8l-42.859-113.71C877.632,1836.718,946.784,1783.796,963.775,1811.045z"
					/>
				
					<linearGradient id="SVGID_00000178202387555287915100000014778269004606027137_" gradientUnits="userSpaceOnUse" x1="1835.2944" y1="2238.2688" x2="2009.0944" y2="2238.2688" gradientTransform="matrix(0.8485 -0.5291 0.5291 0.8485 -1871.2408 996.9384)">
					<stop  offset="0" style="stop-color:#09005D"/>
					<stop  offset="1" style="stop-color:#1A0F91"/>
				</linearGradient>
				<path style="fill:url(#SVGID_00000178202387555287915100000014778269004606027137_);" d="M903.06,1855.075l17.874,61.626
					c0.229,0.79,0.554,1.528,0.989,2.227c2.659,4.277,12.887,18.323,26.619,6.982c12.46-10.29,23.985-19.495,34.211-20.702
					c4.592-0.542,8.836,2.484,9.812,7.003c2.432,11.263,7.444,36.744,8.421,59.547c0.198,4.627-3.216,8.604-7.808,9.207
					c-13.837,1.817-43.127,4.834-67.259,1.74c-3.27-0.419-6.047-2.554-7.245-5.625c-5.843-14.972-23.772-60.412-30.726-72.301
					c-6.528-11.16-24.053-11.858-31.432-11.627c-2.419,0.076-4.742-0.835-6.469-2.532c-6.102-5.998-17.506-21.072,0.675-37.298
					c3.805-3.396,4.04-9.212,0.53-12.912c-6.988-7.366-14.183-20.133-1.005-34.704c13.394-14.81,29.762-11.396,39.666-7.127
					c4.005,1.726,8.565,0.252,11.002-3.364c1.387-2.059,3.687-3.545,7.497-2.997c5.133,0.739,9.717-3.319,9.92-8.501
					c0.39-9.956,4.669-22.318,22.229-26.702c31.16-7.779,48.562,22.889,49.192,45.068c0.63,22.179-33.633,28.692-53.412,26.068
					c-15.038-1.995-27.107,12.334-32.028,19.317C902.753,1849.68,902.307,1852.476,903.06,1855.075z"/>
				
					<linearGradient id="SVGID_00000106127557990761780340000018420462653037404572_" gradientUnits="userSpaceOnUse" x1="1733.3153" y1="2344.2678" x2="1850.017" y2="2224.5352" gradientTransform="matrix(0.8485 -0.5291 0.5291 0.8485 -1871.2408 996.9384)">
					<stop  offset="0" style="stop-color:#FEBBBA"/>
					<stop  offset="1" style="stop-color:#FF928E"/>
				</linearGradient>
				<path style="fill:url(#SVGID_00000106127557990761780340000018420462653037404572_);" d="M894.68,1927.153
					c0,0-2.756-38.598-18.587-41.386c-15.832-2.788-32.094,9.424-17.477,31.836C876.798,1945.48,894.68,1927.153,894.68,1927.153z"
					/>
			</g>
		</g>
	</g>
</g>
</svg>
